<svg  
fill="#4F518C" version="1.1" id="Capa_1" xmlns="http://www.w3.org/2000/svg" xmlnsXlink="http://www.w3.org/1999/xlink" width="250px" height="230px" viewBox="0 0 444.244 444.244" xmlSpace="preserve"><g id="SVGRepo_bgCarrier" strokeWidth="0"></g><g id="SVGRepo_tracerCarrier" stroke-linecap="round" stroke-linejoin="round"></g><g id="SVGRepo_iconCarrier"> <g> <g> <path d="M443.258,221.054c-1.783-1.895-3.567-3.787-5.352-5.682c-7.414-7.869-15.881-14.936-24.705-21.16 c-8.228-5.801-16.865-11.072-25.969-15.379c-0.416-0.196-0.835-0.39-1.253-0.584c8.581-12.298,15.413-25.773,20.72-39.83 c2.873-7.611,5.037-15.385,6.801-23.314c0.279-1.252,0.994-4.027,0.994-4.027s-0.885-0.295-1.396-0.447 c-2.491-0.75-4.983-1.496-7.475-2.246c-10.355-3.107-21.221-4.994-31.977-5.973c-10.023-0.91-20.142-1.156-30.181-0.334 c-0.458,0.037-0.917,0.08-1.375,0.121c1.281-14.941,0.461-30.027-1.973-44.854c-1.316-8.029-3.33-15.844-5.769-23.592 c-0.383-1.225-1.151-3.984-1.151-3.984s-0.912,0.188-1.435,0.311c-2.53,0.598-5.063,1.195-7.596,1.793 c-10.521,2.486-20.875,6.285-30.678,10.814c-9.137,4.225-18.021,9.07-26.303,14.801c-0.379,0.262-0.752,0.536-1.129,0.801 c-6.361-13.583-14.615-26.239-24.138-37.865c-5.155-6.295-10.805-12.057-16.789-17.547C224.186,2.008,222.138,0,222.138,0 s-0.695,0.619-1.084,0.986c-1.895,1.783-3.789,3.568-5.682,5.352c-7.869,7.412-14.936,15.879-21.16,24.705 c-5.803,8.225-11.072,16.865-15.379,25.971c-0.196,0.416-0.389,0.834-0.584,1.252c-12.299-8.581-25.773-15.413-39.83-20.721 c-7.613-2.873-15.387-5.039-23.314-6.801c-1.252-0.279-4.029-0.994-4.029-0.994s-0.293,0.885-0.447,1.396 c-0.748,2.492-1.496,4.984-2.244,7.475c-3.109,10.355-4.994,21.221-5.973,31.975c-0.912,10.025-1.156,20.143-0.334,30.182 c0.037,0.458,0.08,0.917,0.121,1.376c-14.941-1.282-30.027-0.462-44.854,1.972c-8.029,1.316-15.844,3.328-23.592,5.766 c-1.225,0.387-3.986,1.154-3.986,1.154s0.188,0.912,0.311,1.434c0.598,2.531,1.197,5.064,1.793,7.596 c2.486,10.521,6.285,20.875,10.816,30.678c4.223,9.137,9.068,18.021,14.801,26.305c0.262,0.377,0.535,0.75,0.8,1.127 c-13.583,6.361-26.24,14.615-37.866,24.137c-6.295,5.156-12.057,10.807-17.547,16.791C2.008,220.059,0,222.104,0,222.104 s0.619,0.697,0.986,1.088c1.783,1.893,3.568,3.786,5.35,5.682c7.414,7.867,15.881,14.937,24.705,21.16 c8.227,5.801,16.865,11.071,25.971,15.379c0.416,0.196,0.834,0.39,1.252,0.583c-8.582,12.299-15.413,25.773-20.719,39.829 c-2.875,7.612-5.039,15.387-6.801,23.313c-0.279,1.252-0.994,4.027-0.994,4.027s0.883,0.295,1.396,0.449 c2.49,0.748,4.982,1.496,7.475,2.246c10.354,3.105,21.221,4.994,31.975,5.973c10.025,0.91,20.143,1.156,30.182,0.332 c0.458-0.037,0.916-0.08,1.375-0.121c-1.282,14.941-0.461,30.027,1.971,44.854c1.318,8.028,3.33,15.846,5.768,23.592 c0.385,1.225,1.152,3.984,1.152,3.984s0.914-0.187,1.436-0.31c2.531-0.598,5.063-1.197,7.596-1.793 c10.52-2.486,20.875-6.285,30.678-10.813c9.137-4.226,18.021-9.07,26.303-14.804c0.377-0.262,0.75-0.535,1.127-0.8 c6.361,13.583,14.616,26.24,24.139,37.866c5.154,6.295,10.807,12.057,16.791,17.547c0.943,0.867,2.99,2.875,2.99,2.875 s0.697-0.619,1.085-0.986c1.896-1.782,3.787-3.565,5.683-5.35c7.869-7.414,14.937-15.881,21.162-24.705 c5.799-8.227,11.069-16.865,15.377-25.971c0.196-0.416,0.39-0.834,0.583-1.252c12.299,8.581,25.773,15.413,39.831,20.719 c7.611,2.875,15.387,5.039,23.313,6.801c1.252,0.279,4.027,0.996,4.027,0.996s0.295-0.885,0.447-1.397 c0.75-2.49,1.496-4.982,2.246-7.476c3.106-10.354,4.994-21.221,5.973-31.975c0.91-10.025,1.156-20.144,0.334-30.18 c-0.037-0.459-0.08-0.918-0.121-1.377c14.941,1.281,30.027,0.461,44.854-1.972c8.028-1.317,15.844-3.33,23.592-5.769 c1.225-0.385,3.983-1.151,3.983-1.151s-0.188-0.914-0.311-1.435c-0.598-2.533-1.195-5.063-1.793-7.598 c-2.486-10.52-6.285-20.873-10.814-30.678c-4.225-9.137-9.069-18.021-14.801-26.303c-0.262-0.377-0.535-0.75-0.801-1.127 c13.584-6.361,26.239-14.616,37.865-24.14c6.295-5.153,12.057-10.805,17.549-16.791c0.867-0.944,2.875-2.99,2.875-2.99 S443.625,221.442,443.258,221.054z M375.976,253.172c-4.503-5.222-9.389-10.109-14.759-14.351 c-5.006-3.949-10.123-7.582-15.69-10.701c-4.293-2.403-8.748-4.301-13.373-5.961c2.16,2.037,4.36,4.021,6.492,6.09 c3.032,2.94,5.872,6.041,8.7,9.181c6.283,6.975,11.767,14.678,16.691,22.717c-7.086,3.817-14.438,7.183-21.98,9.955 c-4.094,1.504-8.223,2.84-12.407,4.065c-4.027,1.185-8.14,2-12.218,2.974c17.928,3.287,36.314,0.928,53.468-4.974 c0.801,1.503,1.594,3.009,2.364,4.521c4.136,8.1,7.732,16.49,10.945,24.992c2.178,5.76,4.234,11.586,6.01,17.487 c-16.475,3.937-33.432,6.183-50.368,6.771c-1.287-6.773-3.087-13.447-5.617-19.805c-2.361-5.925-4.978-11.63-8.24-17.113 c-2.517-4.229-5.426-8.101-8.601-11.851c0.853,2.847,1.767,5.664,2.578,8.521c1.156,4.063,2.064,8.17,2.943,12.301 c1.955,9.183,2.861,18.594,3.105,28.02c-8.049-0.236-16.101-0.998-24.021-2.369c-4.297-0.744-8.541-1.651-12.779-2.682 c-4.078-0.99-8.049-2.338-12.065-3.535c13.885,11.811,30.987,18.963,48.794,22.428c-0.059,1.701-0.128,3.4-0.216,5.097 c-0.468,9.082-1.548,18.147-3.017,27.117c-0.994,6.075-2.127,12.149-3.539,18.149c-16.236-4.83-32.046-11.36-47.006-19.32 c2.271-6.512,4.051-13.19,5.037-19.963c0.918-6.311,1.504-12.559,1.422-18.938c-0.063-4.92-0.65-9.729-1.525-14.563 c-0.684,2.892-1.303,5.787-2.026,8.668c-1.029,4.099-2.295,8.107-3.601,12.123c-2.897,8.93-6.817,17.534-11.318,25.819 c-6.854-4.229-13.445-8.913-19.62-14.062c-3.351-2.793-6.57-5.703-9.726-8.713c-3.039-2.898-5.803-6.05-8.684-9.097 c6.117,17.172,17.355,31.918,31.044,43.82c-0.901,1.445-1.813,2.883-2.735,4.307c-4.946,7.631-10.414,14.941-16.17,21.976 c-3.899,4.766-7.918,9.461-12.143,13.948c-11.648-12.304-22.074-25.867-31.054-40.246c5.222-4.502,10.11-9.388,14.351-14.757 c3.949-5.007,7.582-10.125,10.701-15.691c2.404-4.293,4.301-8.75,5.961-13.373c-2.037,2.16-4.021,4.359-6.09,6.492 c-2.941,3.033-6.041,5.873-9.18,8.699c-6.975,6.284-14.678,11.767-22.718,16.69c-3.817-7.086-7.182-14.437-9.954-21.979 c-1.504-4.094-2.84-8.225-4.066-12.408c-1.182-4.028-2-8.141-2.973-12.219c-3.287,17.93-0.928,36.316,4.973,53.468 c-1.503,0.801-3.009,1.594-4.52,2.364c-8.1,4.136-16.49,7.734-24.992,10.947c-5.76,2.178-11.586,4.234-17.488,6.01 c-3.936-16.477-6.183-33.434-6.77-50.369c6.773-1.289,13.447-3.088,19.805-5.619c5.924-2.358,11.629-4.977,17.113-8.237 c4.229-2.517,8.1-5.427,11.85-8.603c-2.846,0.854-5.664,1.767-8.52,2.578c-4.064,1.156-8.17,2.066-12.301,2.945 c-9.183,1.954-18.594,2.859-28.02,3.105c0.237-8.049,0.998-16.101,2.369-24.021c0.744-4.297,1.652-8.541,2.682-12.779 c0.99-4.08,2.338-8.049,3.535-12.065c-11.811,13.883-18.963,30.987-22.428,48.794c-1.701-0.059-3.4-0.128-5.096-0.217 c-9.082-0.469-18.148-1.549-27.117-3.016c-6.076-0.994-12.15-2.127-18.15-3.541c4.83-16.236,11.361-32.043,19.321-47.005 c6.511,2.271,13.19,4.05,19.962,5.036c6.311,0.918,12.559,1.506,18.939,1.422c4.92-0.064,9.729-0.648,14.563-1.523 c-2.891-0.684-5.787-1.303-8.668-2.026c-4.096-1.031-8.107-2.297-12.123-3.601c-8.93-2.898-17.534-6.819-25.819-11.319 c4.229-6.853,8.913-13.444,14.062-19.621c2.793-3.349,5.703-6.567,8.713-9.726c2.896-3.036,6.049-5.801,9.096-8.682 c-17.172,6.117-31.918,17.355-43.82,31.042c-1.445-0.901-2.883-1.813-4.307-2.735c-7.629-4.944-14.941-10.414-21.975-16.17 c-4.766-3.897-9.461-7.916-13.949-12.141c12.304-11.649,25.869-22.075,40.246-31.054c4.503,5.222,9.389,10.109,14.76,14.349 c5.004,3.951,10.123,7.584,15.691,10.701c4.291,2.404,8.748,4.303,13.371,5.961c-2.16-2.037-4.359-4.021-6.492-6.088 c-3.031-2.943-5.873-6.043-8.699-9.18c-6.284-6.975-11.767-14.678-16.691-22.718c7.086-3.818,14.436-7.184,21.979-9.956 c4.094-1.504,8.225-2.838,12.408-4.066c4.027-1.182,8.141-2,12.219-2.971c-17.928-3.289-36.316-0.93-53.467,4.973 c-0.801-1.504-1.594-3.01-2.365-4.521c-4.135-8.098-7.734-16.49-10.947-24.99c-2.178-5.76-4.234-11.586-6.01-17.49 c16.477-3.936,33.434-6.182,50.369-6.77c1.288,6.773,3.088,13.448,5.619,19.807c2.359,5.922,4.977,11.629,8.24,17.113 c2.514,4.229,5.424,8.1,8.6,11.848c-0.854-2.844-1.766-5.662-2.578-8.52c-1.154-4.064-2.066-8.168-2.945-12.299 c-1.955-9.184-2.861-18.595-3.106-28.021c8.049,0.237,16.101,0.998,24.022,2.369c4.299,0.744,8.541,1.654,12.779,2.684 c4.078,0.988,8.049,2.338,12.066,3.535c-13.883-11.813-30.988-18.963-48.794-22.43c0.058-1.701,0.128-3.4,0.216-5.096 c0.469-9.08,1.549-18.146,3.016-27.117c0.994-6.076,2.127-12.148,3.541-18.15c16.237,4.83,32.045,11.363,47.006,19.322 c-2.271,6.511-4.051,13.191-5.037,19.963c-0.918,6.309-1.506,12.559-1.422,18.939c0.064,4.92,0.648,9.727,1.523,14.561 c0.686-2.889,1.303-5.787,2.027-8.666c1.033-4.098,2.297-8.107,3.6-12.125c2.898-8.931,6.819-17.535,11.32-25.819 c6.852,4.229,13.443,8.915,19.619,14.062c3.352,2.795,6.57,5.703,9.727,8.715c3.037,2.895,5.803,6.049,8.682,9.094 c-6.115-17.17-17.354-31.916-31.041-43.82c0.9-1.445,1.812-2.881,2.734-4.305c4.945-7.631,10.414-14.943,16.17-21.977 c3.898-4.766,7.916-9.459,12.143-13.949c11.647,12.305,22.073,25.871,31.052,40.247c-5.222,4.503-10.109,9.389-14.349,14.759 c-3.951,5.006-7.584,10.123-10.701,15.691c-2.403,4.293-4.304,8.748-5.961,13.373c2.037-2.16,4.021-4.361,6.088-6.492 c2.942-3.033,6.043-5.873,9.181-8.701c6.975-6.283,14.678-11.766,22.719-16.691c3.817,7.086,7.183,14.436,9.955,21.979 c1.504,4.096,2.838,8.225,4.065,12.41c1.183,4.025,2,8.139,2.971,12.217c3.289-17.926,0.931-36.314-4.973-53.467 c1.504-0.801,3.01-1.594,4.521-2.365c8.1-4.135,16.489-7.732,24.989-10.945c5.761-2.178,11.588-4.234,17.49-6.01 c3.937,16.477,6.182,33.432,6.771,50.368c-6.773,1.288-13.447,3.088-19.806,5.62c-5.926,2.359-11.631,4.975-17.115,8.238 c-4.229,2.516-8.1,5.426-11.848,8.6c2.844-0.852,5.662-1.766,8.521-2.576c4.063-1.156,8.168-2.066,12.299-2.945 c9.183-1.955,18.595-2.861,28.021-3.106c-0.236,8.049-0.998,16.101-2.369,24.022c-0.743,4.297-1.653,8.541-2.684,12.779 c-0.99,4.078-2.338,8.049-3.535,12.066c11.813-13.885,18.963-30.988,22.431-48.794c1.7,0.058,3.399,0.128,5.096,0.216 c9.082,0.469,18.146,1.547,27.115,3.016c6.077,0.994,12.151,2.127,18.151,3.541c-4.83,16.236-11.362,32.044-19.321,47.004 c-6.512-2.271-13.19-4.049-19.962-5.035c-6.311-0.92-12.561-1.506-18.94-1.422c-4.92,0.063-9.728,0.648-14.562,1.523 c2.89,0.684,5.787,1.303,8.666,2.027c4.099,1.031,8.107,2.295,12.125,3.6c8.931,2.898,17.533,6.819,25.819,11.32 c-4.229,6.853-8.915,13.444-14.062,19.619c-2.794,3.35-5.701,6.57-8.714,9.725c-2.896,3.039-6.049,5.803-9.094,8.684 c17.17-6.117,31.915-17.356,43.82-31.043c1.443,0.9,2.881,1.812,4.305,2.734c7.631,4.947,14.943,10.414,21.978,16.17 c4.766,3.9,9.459,7.918,13.948,12.143C403.918,233.766,390.352,244.192,375.976,253.172z"></path> <path d="M266.861,217.291c-0.502-4.696-1.73-9.173-3.563-13.325c9.855-5.323,19.476-11.095,28.777-17.33 c8.836-5.924,17.547-12.234,25.33-19.506c-12.609,3.844-24.73,9.545-36.392,15.641c-7.662,4.008-15.197,8.27-22.565,12.801 c-2.729-3.73-6.021-7.023-9.747-9.757c5.874-9.54,11.318-19.349,16.259-29.401c4.69-9.549,9.08-19.369,12.185-29.559 c-8.998,9.635-16.646,20.633-23.695,31.742c-4.631,7.301-9.023,14.756-13.139,22.363c-4.15-1.836-8.627-3.068-13.321-3.574 c0.315-11.198,0.129-22.416-0.62-33.592c-0.713-10.611-1.822-21.311-4.229-31.688c-2.977,12.842-4.098,26.191-4.648,39.336 c-0.362,8.64-0.439,17.294-0.199,25.938c-4.697,0.501-9.174,1.73-13.324,3.563c-5.324-9.856-11.095-19.476-17.332-28.78 c-5.922-8.834-12.234-17.545-19.506-25.328c3.844,12.609,9.547,24.73,15.643,36.391c4.007,7.664,8.268,15.198,12.799,22.566 c-3.729,2.73-7.021,6.02-9.755,9.747c-9.54-5.874-19.349-11.32-29.403-16.261c-9.547-4.689-19.369-9.078-29.557-12.182 c9.631,8.998,20.633,16.645,31.74,23.693c7.302,4.633,14.758,9.027,22.365,13.143c-1.837,4.149-3.068,8.625-3.574,13.32 c-11.198-0.317-22.416-0.13-33.592,0.619c-10.613,0.713-21.313,1.822-31.688,4.229c12.84,2.977,26.189,4.098,39.336,4.65 c8.641,0.361,17.294,0.438,25.939,0.197c0.501,4.696,1.73,9.173,3.563,13.323c-9.856,5.324-19.476,11.096-28.78,17.332 c-8.836,5.925-17.547,12.234-25.328,19.507c12.607-3.843,24.73-9.548,36.391-15.642c7.664-4.008,15.198-8.27,22.566-12.801 c2.73,3.729,6.02,7.021,9.747,9.754c-5.876,9.541-11.321,19.35-16.261,29.404c-4.689,9.549-9.078,19.369-12.184,29.557 c9-9.631,16.645-20.631,23.695-31.74c4.633-7.301,9.025-14.758,13.141-22.364c4.15,1.836,8.625,3.067,13.32,3.573 c-0.316,11.199-0.128,22.416,0.621,33.591c0.713,10.614,1.822,21.313,4.227,31.688c2.979-12.84,4.1-26.188,4.65-39.336 c0.361-8.641,0.438-17.294,0.199-25.939c4.695-0.5,9.172-1.729,13.322-3.562c5.324,9.855,11.097,19.477,17.332,28.777 c5.926,8.838,12.233,17.549,19.506,25.332c-3.843-12.609-9.545-24.732-15.641-36.393c-4.009-7.664-8.271-15.197-12.802-22.566 c3.729-2.73,7.022-6.02,9.756-9.746c9.54,5.875,19.351,11.32,29.402,16.26c9.549,4.689,19.369,9.078,29.559,12.184 c-9.633-8.998-20.633-16.645-31.741-23.694c-7.302-4.634-14.758-9.025-22.363-13.142c1.836-4.149,3.068-8.625,3.574-13.319 c11.197,0.315,22.416,0.128,33.59-0.621c10.612-0.713,21.312-1.822,31.688-4.227c-12.842-2.977-26.19-4.1-39.336-4.65 C284.161,217.128,275.508,217.052,266.861,217.291z"></path> </g> </g> </g></svg>