<svg xmlns="http://www.w3.org/2000/svg" xmlns:xlink="http://www.w3.org/1999/xlink" width="558" zoomAndPan="magnify" viewBox="0 0 418.5 431.999984" height="576" preserveAspectRatio="xMidYMid meet" version="1.0"><defs><g/><clipPath id="475eb46224"><path d="M 120 50 L 162 50 L 162 98 L 120 98 Z M 120 50 " clip-rule="nonzero"/></clipPath><clipPath id="ff9da13127"><path d="M 100.289062 84.375 L 137.769531 38.484375 L 184.820312 76.914062 L 147.339844 122.800781 Z M 100.289062 84.375 " clip-rule="nonzero"/></clipPath><clipPath id="f4e4346804"><path d="M 100.289062 84.375 L 137.769531 38.484375 L 184.820312 76.914062 L 147.339844 122.800781 Z M 100.289062 84.375 " clip-rule="nonzero"/></clipPath><clipPath id="bd6ebf6761"><path d="M 121 51 L 162 51 L 162 93 L 121 93 Z M 121 51 " clip-rule="nonzero"/></clipPath><clipPath id="c96a474f08"><path d="M 100.289062 84.375 L 137.769531 38.484375 L 184.820312 76.914062 L 147.339844 122.800781 Z M 100.289062 84.375 " clip-rule="nonzero"/></clipPath><clipPath id="f5073fbd5b"><path d="M 100.289062 84.375 L 137.769531 38.484375 L 184.820312 76.914062 L 147.339844 122.800781 Z M 100.289062 84.375 " clip-rule="nonzero"/></clipPath><clipPath id="916a0db864"><path d="M 142 86 L 165 86 L 165 107 L 142 107 Z M 142 86 " clip-rule="nonzero"/></clipPath><clipPath id="35015a7cd7"><path d="M 100.289062 84.375 L 137.769531 38.484375 L 184.820312 76.914062 L 147.339844 122.800781 Z M 100.289062 84.375 " clip-rule="nonzero"/></clipPath><clipPath id="961cff0fd2"><path d="M 100.289062 84.375 L 137.769531 38.484375 L 184.820312 76.914062 L 147.339844 122.800781 Z M 100.289062 84.375 " clip-rule="nonzero"/></clipPath><clipPath id="c57d3d20a2"><path d="M 144 90 L 165 90 L 165 103 L 144 103 Z M 144 90 " clip-rule="nonzero"/></clipPath><clipPath id="46ba356c7f"><path d="M 100.289062 84.375 L 137.769531 38.484375 L 184.820312 76.914062 L 147.339844 122.800781 Z M 100.289062 84.375 " clip-rule="nonzero"/></clipPath><clipPath id="4ec62695ca"><path d="M 100.289062 84.375 L 137.769531 38.484375 L 184.820312 76.914062 L 147.339844 122.800781 Z M 100.289062 84.375 " clip-rule="nonzero"/></clipPath><clipPath id="c4eb0cb16f"><path d="M 132 62 L 158 62 L 158 97 L 132 97 Z M 132 62 " clip-rule="nonzero"/></clipPath><clipPath id="fd9ac44640"><path d="M 100.289062 84.375 L 137.769531 38.484375 L 184.820312 76.914062 L 147.339844 122.800781 Z M 100.289062 84.375 " clip-rule="nonzero"/></clipPath><clipPath id="1d3f7f4ffa"><path d="M 100.289062 84.375 L 137.769531 38.484375 L 184.820312 76.914062 L 147.339844 122.800781 Z M 100.289062 84.375 " clip-rule="nonzero"/></clipPath><clipPath id="afe306fbf7"><path d="M 108 82 L 120 82 L 120 87 L 108 87 Z M 108 82 " clip-rule="nonzero"/></clipPath><clipPath id="d25f116129"><path d="M 100.289062 84.375 L 137.769531 38.484375 L 184.820312 76.914062 L 147.339844 122.800781 Z M 100.289062 84.375 " clip-rule="nonzero"/></clipPath><clipPath id="f269583966"><path d="M 100.289062 84.375 L 137.769531 38.484375 L 184.820312 76.914062 L 147.339844 122.800781 Z M 100.289062 84.375 " clip-rule="nonzero"/></clipPath><clipPath id="2b20db18bb"><path d="M 112 87 L 122 87 L 122 96 L 112 96 Z M 112 87 " clip-rule="nonzero"/></clipPath><clipPath id="0adc7e843f"><path d="M 100.289062 84.375 L 137.769531 38.484375 L 184.820312 76.914062 L 147.339844 122.800781 Z M 100.289062 84.375 " clip-rule="nonzero"/></clipPath><clipPath id="7d09ad3679"><path d="M 100.289062 84.375 L 137.769531 38.484375 L 184.820312 76.914062 L 147.339844 122.800781 Z M 100.289062 84.375 " clip-rule="nonzero"/></clipPath><clipPath id="cdba909596"><path d="M 120 88 L 127 88 L 127 100 L 120 100 Z M 120 88 " clip-rule="nonzero"/></clipPath><clipPath id="1af1f807b8"><path d="M 100.289062 84.375 L 137.769531 38.484375 L 184.820312 76.914062 L 147.339844 122.800781 Z M 100.289062 84.375 " clip-rule="nonzero"/></clipPath><clipPath id="c5c4769e33"><path d="M 100.289062 84.375 L 137.769531 38.484375 L 184.820312 76.914062 L 147.339844 122.800781 Z M 100.289062 84.375 " clip-rule="nonzero"/></clipPath><clipPath id="02708ca9c6"><path d="M 109.105469 80 L 341.605469 80 L 341.605469 309.875 L 109.105469 309.875 Z M 109.105469 80 " clip-rule="nonzero"/></clipPath><clipPath id="dab296c8db"><path d="M 109.105469 79.625 L 329 79.625 L 329 309.875 L 109.105469 309.875 Z M 109.105469 79.625 " clip-rule="nonzero"/></clipPath><clipPath id="355a5870fe"><path d="M 109.105469 117 L 239 117 L 239 198 L 109.105469 198 Z M 109.105469 117 " clip-rule="nonzero"/></clipPath></defs><path fill="#907ad6" d="M 239.78125 80.335938 L 237.28125 80.449219 C 219.238281 80.328125 194.832031 85.222656 164.054688 95.136719 C 138.742188 104.160156 120.390625 113.324219 109.003906 122.632812 C 98.019531 131.523438 91.445312 137.742188 89.289062 141.292969 C 85.246094 146.429688 81.757812 151.960938 78.820312 157.882812 C 70.378906 176.117188 65.269531 195.808594 63.488281 216.953125 C 60.53125 243.84375 60.511719 269.003906 63.425781 292.429688 C 67.65625 313.375 72.84375 326.6875 78.992188 332.375 C 82.980469 339.59375 95.378906 346.566406 116.175781 353.300781 L 178.8125 367.96875 C 191.816406 370.234375 201.773438 371.105469 208.679688 370.578125 C 235.847656 369.359375 266.539062 356.71875 300.757812 332.652344 L 346.753906 299.355469 C 356.71875 291.351562 362.363281 286.347656 363.679688 284.339844 C 371.21875 274.929688 375.121094 268.960938 375.386719 266.425781 C 377.257812 261.570312 378.304688 257.289062 378.523438 253.585938 C 380.027344 243.386719 375.933594 229.554688 366.238281 212.089844 C 348.34375 183.015625 328.957031 155.515625 308.078125 129.582031 C 291.832031 108.878906 280.335938 96.441406 273.59375 92.273438 C 263.597656 84.617188 252.324219 80.640625 239.78125 80.335938 " fill-opacity="1" fill-rule="nonzero"/><path fill="#4be4ff" d="M 267.390625 81.921875 C 267.335938 81.867188 251.429688 66.28125 241.453125 62.335938 C 240.664062 62.027344 239.867188 61.730469 239.058594 61.445312 C 221.597656 55.332031 199.734375 55.960938 184.214844 65.433594 C 173.296875 72.097656 167.242188 85.160156 161.949219 97.230469 C 159.492188 102.828125 157.226562 108.570312 154.949219 114.335938 C 152.667969 120.113281 150.375 125.921875 147.878906 131.609375 C 143.441406 141.726562 138.347656 151.511719 131.476562 160.179688 C 121.363281 172.9375 107.1875 181.917969 93.230469 190.773438 C 79.324219 199.59375 65.636719 208.285156 55.972656 220.480469 C 54.3125 222.574219 52.777344 224.765625 51.375 227.078125 C 40.433594 245.167969 46.128906 270.203125 51.773438 291.144531 C 61.339844 326.648438 81.1875 366.945312 114.789062 380.902344 C 116.324219 381.542969 117.875 382.132812 119.445312 382.679688 C 133.949219 387.757812 149.757812 389.222656 165.25 390.214844 C 194.832031 392.109375 224.714844 390.632812 254.160156 387.003906 C 273.867188 384.578125 293.585938 381.292969 312.457031 375.328125 C 326.359375 370.9375 342.921875 363.289062 346.699219 349.863281 C 350.425781 336.605469 345.265625 321.828125 340.246094 308.558594 C 336.808594 299.46875 332.804688 290.609375 328.785156 281.714844 C 325.410156 274.246094 322.023438 266.75 318.972656 259.117188 C 310.128906 236.972656 305.515625 213.449219 300.929688 190.070312 C 299.3125 181.828125 297.703125 173.617188 295.90625 165.460938 C 291.84375 147.003906 287.59375 128.550781 281.351562 110.777344 C 277.796875 100.65625 267.246094 81.738281 267.230469 81.710938 L 267.390625 81.921875 M 268.683594 80.605469 C 268.746094 80.667969 268.800781 80.738281 268.84375 80.816406 C 268.828125 80.789062 279.476562 99.863281 283.09375 110.167969 C 289.375 128.058594 293.648438 146.609375 297.710938 165.066406 C 299.511719 173.242188 301.125 181.480469 302.742188 189.71875 C 307.332031 213.125 311.914062 236.476562 320.6875 258.433594 C 323.71875 266.023438 327.089844 273.480469 330.46875 280.957031 C 334.484375 289.847656 338.507812 298.753906 341.972656 307.90625 C 346.949219 321.066406 352.394531 336.421875 348.472656 350.363281 C 344.398438 364.859375 326.796875 372.730469 313.015625 377.085938 C 293.984375 383.097656 274.132812 386.402344 254.386719 388.835938 C 224.851562 392.472656 194.855469 393.957031 165.128906 392.054688 C 149.636719 391.0625 133.601562 389.589844 118.835938 384.421875 C 117.234375 383.859375 115.652344 383.257812 114.082031 382.605469 C 79.625 368.292969 59.582031 327.214844 49.992188 291.621094 C 44.394531 270.859375 38.378906 245 49.796875 226.125 C 51.238281 223.742188 52.820312 221.484375 54.523438 219.335938 C 64.417969 206.855469 78.390625 198.003906 92.242188 189.214844 C 106.25 180.328125 120.144531 171.503906 130.027344 159.035156 C 136.761719 150.542969 141.78125 140.921875 146.191406 130.871094 C 148.667969 125.21875 150.949219 119.445312 153.234375 113.660156 C 155.507812 107.898438 157.785156 102.125 160.257812 96.488281 C 165.503906 84.527344 171.757812 70.875 183.253906 63.859375 C 199.34375 54.039062 221.808594 53.453125 239.671875 59.707031 C 240.5 60 241.320312 60.304688 242.128906 60.625 C 252.535156 64.738281 268.738281 80.660156 268.683594 80.605469 Z M 268.683594 80.605469 " fill-opacity="0.9608" fill-rule="nonzero"/><g clip-path="url(#475eb46224)"><g clip-path="url(#ff9da13127)"><g clip-path="url(#f4e4346804)"><path fill="#dabfff" d="M 159.289062 61.644531 C 153.714844 51.503906 140.914062 47.835938 130.828125 53.546875 C 120.976562 59.125 117.441406 71.660156 122.910156 81.589844 C 126.09375 87.375 131.632812 91.050781 137.671875 92.078125 C 139.523438 92.394531 141.125 93.539062 142.03125 95.183594 L 143.496094 97.851562 L 161.984375 87.722656 L 160.515625 85.054688 C 159.609375 83.40625 159.511719 81.433594 160.242188 79.703125 C 162.609375 74.0625 162.472656 67.429688 159.289062 61.644531 Z M 159.289062 61.644531 " fill-opacity="1" fill-rule="nonzero"/></g></g></g><g clip-path="url(#bd6ebf6761)"><g clip-path="url(#c96a474f08)"><g clip-path="url(#f5073fbd5b)"><path fill="#4b548b" d="M 135.378906 65.828125 L 132.570312 53.019531 L 140.480469 63.492188 L 146.5625 51.894531 L 145.894531 64.984375 L 158.023438 60.023438 L 149.09375 69.605469 L 161.589844 73.601562 L 148.578125 75.191406 L 155.597656 86.277344 L 144.589844 79.132812 L 142.847656 92.117188 L 138.992188 79.582031 L 129.304688 88.390625 L 134.410156 76.332031 L 121.308594 76.839844 L 132.980469 70.898438 L 122.597656 62.871094 Z M 135.378906 65.828125 " fill-opacity="1" fill-rule="nonzero"/></g></g></g><g clip-path="url(#916a0db864)"><g clip-path="url(#35015a7cd7)"><g clip-path="url(#961cff0fd2)"><path fill="#4be4ff" d="M 160.160156 87.203125 L 144.035156 96.035156 C 142.617188 96.8125 142.101562 98.589844 142.882812 100.007812 C 143.46875 101.070312 144.617188 101.628906 145.753906 101.511719 C 148.46875 105.578125 153.789062 107.230469 158.40625 105.1875 C 163.523438 102.921875 165.84375 96.96875 163.644531 91.835938 C 164.539062 90.941406 164.777344 89.53125 164.136719 88.363281 C 163.355469 86.945312 161.578125 86.425781 160.160156 87.203125 Z M 160.160156 87.203125 " fill-opacity="1" fill-rule="nonzero"/></g></g></g><g clip-path="url(#c57d3d20a2)"><g clip-path="url(#46ba356c7f)"><g clip-path="url(#4ec62695ca)"><path fill="#4f518c" d="M 160.855469 93.0625 C 156.484375 96.132812 151.808594 98.839844 146.8125 100.710938 C 146.117188 100.972656 145.414062 101.210938 144.703125 101.429688 C 145.042969 101.519531 145.398438 101.550781 145.753906 101.511719 C 146.042969 101.945312 146.363281 102.351562 146.707031 102.726562 C 152.945312 100.601562 158.769531 97.175781 164.136719 93.269531 C 164.011719 92.789062 163.847656 92.308594 163.644531 91.835938 C 164.035156 91.445312 164.300781 90.957031 164.421875 90.429688 C 163.25 91.328125 162.066406 92.214844 160.855469 93.0625 Z M 160.855469 93.0625 " fill-opacity="1" fill-rule="nonzero"/></g></g></g><g clip-path="url(#c4eb0cb16f)"><g clip-path="url(#fd9ac44640)"><g clip-path="url(#1d3f7f4ffa)"><path fill="#4be4ff" d="M 149.96875 96.070312 C 147.070312 88.90625 143.820312 81.914062 140.257812 75.054688 C 139.347656 73.308594 138.410156 71.574219 137.457031 69.855469 C 136.835938 68.734375 135.757812 67.390625 134.320312 67.582031 C 132.199219 67.863281 132.605469 70.464844 132.949219 71.921875 C 133.347656 73.601562 134.03125 75.191406 134.949219 76.652344 C 135.824219 78.042969 137 79.621094 138.582031 80.242188 C 140 80.792969 141.515625 80.480469 142.726562 79.609375 C 145.128906 77.878906 146.300781 74.550781 146.644531 71.722656 C 146.835938 70.15625 146.800781 68.550781 146.515625 66.996094 C 146.203125 65.300781 145.695312 62.980469 143.734375 62.515625 C 141.851562 62.066406 140.53125 63.804688 140.527344 65.519531 C 140.519531 67.230469 141.328125 68.941406 142.109375 70.425781 C 143.925781 73.855469 145.988281 77.171875 147.929688 80.53125 C 148.9375 82.273438 149.945312 84.015625 150.953125 85.757812 C 151.910156 87.414062 152.8125 89.128906 153.90625 90.699219 C 154.472656 91.515625 155.113281 92.261719 155.863281 92.914062 C 156.359375 93.34375 157.160156 93.238281 157.5625 92.742188 C 158.011719 92.199219 157.855469 91.503906 157.390625 91.042969 C 156.242188 89.902344 155.378906 88.519531 154.554688 87.140625 C 153.683594 85.671875 152.816406 84.203125 151.945312 82.734375 C 150.179688 79.757812 148.414062 76.777344 146.652344 73.800781 C 145.824219 72.40625 144.972656 71.023438 144.207031 69.597656 C 143.574219 68.417969 142.859375 67.019531 142.792969 65.65625 C 142.78125 65.4375 142.789062 65.207031 142.878906 65.007812 C 142.9375 64.875 143.03125 64.777344 143.125 64.769531 C 143.449219 64.742188 143.703125 65.445312 143.820312 65.785156 C 144.25 67.023438 144.4375 68.363281 144.472656 69.671875 C 144.539062 72.050781 143.945312 74.730469 142.566406 76.671875 C 142.03125 77.425781 141.292969 78.222656 140.34375 78.40625 C 139.082031 78.652344 138.101562 77.546875 137.40625 76.652344 C 136.53125 75.527344 135.832031 74.285156 135.335938 72.949219 C 135.109375 72.332031 134.914062 71.703125 134.789062 71.0625 C 134.714844 70.703125 134.636719 70.332031 134.625 69.96875 C 134.621094 69.871094 134.703125 69.425781 134.578125 69.546875 C 134.605469 69.519531 134.742188 69.609375 134.847656 69.683594 C 135.007812 69.800781 135.144531 69.945312 135.265625 70.097656 C 135.71875 70.648438 136.03125 71.320312 136.375 71.945312 C 137.179688 73.402344 137.964844 74.871094 138.753906 76.339844 C 142.289062 82.953125 145.582031 89.71875 148.660156 96.558594 C 149.027344 97.371094 150.308594 96.910156 149.96875 96.070312 Z M 149.96875 96.070312 " fill-opacity="1" fill-rule="nonzero"/></g></g></g><g clip-path="url(#afe306fbf7)"><g clip-path="url(#d25f116129)"><g clip-path="url(#f269583966)"><path fill="#4f518c" d="M 110.640625 86.457031 C 111.5 86.28125 112.359375 86.109375 113.21875 85.945312 C 113.90625 85.8125 114.558594 85.636719 115.234375 85.441406 C 115.90625 85.25 116.582031 85.066406 117.257812 84.894531 C 117.664062 84.792969 118.042969 84.625 118.429688 84.472656 C 118.855469 84.304688 119.378906 84.191406 119.707031 83.863281 C 119.960938 83.613281 119.84375 83.222656 119.570312 83.054688 C 119.207031 82.824219 118.671875 82.839844 118.25 82.78125 C 117.800781 82.71875 117.351562 82.644531 116.894531 82.644531 C 116.175781 82.652344 115.457031 82.664062 114.738281 82.691406 C 113.050781 82.753906 111.410156 83.144531 109.761719 83.480469 C 108.964844 83.644531 108.457031 84.660156 108.714844 85.40625 C 109.007812 86.257812 109.792969 86.628906 110.640625 86.457031 Z M 110.640625 86.457031 " fill-opacity="1" fill-rule="nonzero"/></g></g></g><g clip-path="url(#2b20db18bb)"><g clip-path="url(#0adc7e843f)"><g clip-path="url(#7d09ad3679)"><path fill="#4f518c" d="M 115.28125 94.746094 C 115.941406 94.171875 116.601562 93.597656 117.269531 93.03125 C 117.800781 92.578125 118.28125 92.101562 118.773438 91.601562 C 119.261719 91.101562 119.757812 90.613281 120.265625 90.128906 C 120.5625 89.839844 120.8125 89.503906 121.074219 89.183594 C 121.359375 88.828125 121.757812 88.46875 121.882812 88.023438 C 121.980469 87.683594 121.6875 87.398438 121.367188 87.382812 C 120.9375 87.367188 120.476562 87.640625 120.082031 87.796875 C 119.660156 87.964844 119.234375 88.121094 118.839844 88.347656 C 118.214844 88.703125 117.597656 89.070312 116.984375 89.449219 C 115.550781 90.335938 114.316406 91.480469 113.050781 92.585938 C 112.4375 93.121094 112.496094 94.257812 113.089844 94.78125 C 113.761719 95.378906 114.628906 95.316406 115.28125 94.746094 Z M 115.28125 94.746094 " fill-opacity="1" fill-rule="nonzero"/></g></g></g><g clip-path="url(#cdba909596)"><g clip-path="url(#1af1f807b8)"><g clip-path="url(#c5c4769e33)"><path fill="#4f518c" d="M 123.113281 98.273438 C 123.449219 97.464844 123.78125 96.65625 124.125 95.851562 C 124.402344 95.207031 124.617188 94.566406 124.832031 93.902344 C 125.046875 93.234375 125.273438 92.574219 125.507812 91.914062 C 125.648438 91.523438 125.722656 91.113281 125.8125 90.707031 C 125.910156 90.261719 126.105469 89.761719 126.019531 89.308594 C 125.953125 88.957031 125.566406 88.835938 125.269531 88.964844 C 124.878906 89.140625 124.589844 89.589844 124.308594 89.90625 C 124.003906 90.242188 123.695312 90.574219 123.441406 90.953125 C 123.042969 91.550781 122.652344 92.15625 122.273438 92.765625 C 121.386719 94.199219 120.796875 95.777344 120.15625 97.332031 C 119.84375 98.085938 120.40625 99.074219 121.167969 99.28125 C 122.039062 99.515625 122.785156 99.074219 123.113281 98.273438 Z M 123.113281 98.273438 " fill-opacity="1" fill-rule="nonzero"/></g></g></g><g clip-path="url(#02708ca9c6)"><path fill="#dabfff" d="M 341.160156 196.085938 C 340.675781 194.71875 339.296875 194.246094 338.03125 193.855469 C 336.523438 193.394531 335.007812 193.46875 333.53125 194.003906 C 332.890625 194.234375 332.0625 194.535156 331.390625 194.941406 L 331.191406 194.769531 C 331.578125 194.085938 331.859375 193.238281 332.070312 192.585938 C 332.558594 191.089844 332.585938 189.574219 332.078125 188.082031 C 331.648438 186.828125 331.136719 185.464844 329.757812 185.019531 C 328.691406 184.679688 327.164062 185.039062 326.964844 186.355469 C 326.789062 187.523438 327.394531 188.472656 327.9375 189.445312 C 328.585938 190.605469 329.324219 191.722656 329.910156 192.917969 C 330.042969 193.183594 330.632812 194.289062 330.761719 194.96875 C 329.441406 196.546875 328.203125 198.160156 327.035156 199.828125 C 327.070312 199.628906 327.105469 199.433594 327.136719 199.253906 C 327.402344 197.707031 327.207031 196.199219 326.488281 194.796875 C 325.882812 193.621094 325.175781 192.34375 323.746094 192.109375 C 322.640625 191.925781 321.183594 192.503906 321.179688 193.832031 C 321.175781 195.015625 321.910156 195.867188 322.589844 196.75 C 323.402344 197.804688 324.292969 198.800781 325.046875 199.898438 C 325.179688 200.09375 325.675781 200.765625 325.988281 201.363281 C 324.460938 203.667969 323.054688 206.074219 321.765625 208.613281 C 322.160156 207.820312 322.347656 206.746094 322.484375 205.949219 C 322.75 204.402344 322.554688 202.894531 321.835938 201.492188 C 321.230469 200.316406 320.523438 199.039062 319.09375 198.800781 C 317.988281 198.621094 316.53125 199.199219 316.527344 200.527344 C 316.523438 201.710938 317.257812 202.5625 317.9375 203.445312 C 318.75 204.5 319.640625 205.496094 320.394531 206.59375 C 320.617188 206.914062 321.839844 208.5625 321.558594 208.976562 C 321.621094 208.882812 321.679688 208.78125 321.734375 208.675781 C 321.695312 208.753906 321.65625 208.832031 321.617188 208.90625 C 321.597656 208.929688 321.574219 208.953125 321.558594 208.976562 C 321.570312 208.960938 321.585938 208.953125 321.601562 208.941406 C 320.761719 210.613281 319.96875 212.34375 319.21875 214.136719 C 319.214844 213.96875 319.210938 213.804688 319.207031 213.65625 C 319.164062 212.082031 318.679688 210.644531 317.699219 209.410156 C 316.875 208.375 315.933594 207.261719 314.484375 207.3125 C 313.363281 207.347656 312.046875 208.199219 312.304688 209.507812 C 312.53125 210.667969 313.421875 211.355469 314.257812 212.089844 C 315.261719 212.964844 316.332031 213.765625 317.285156 214.695312 C 317.453125 214.859375 318.066406 215.417969 318.488281 215.9375 C 317.871094 217.511719 317.28125 219.128906 316.722656 220.804688 C 316.449219 221.632812 316.167969 222.472656 315.890625 223.328125 C 315.996094 222.589844 315.976562 221.773438 315.960938 221.132812 C 315.917969 219.5625 315.433594 218.121094 314.449219 216.886719 C 313.808594 216.082031 313.089844 215.234375 312.121094 214.921875 C 312.035156 214.058594 311.234375 213.328125 310.421875 213.082031 C 309.03125 212.664062 307.839844 213.496094 306.773438 214.285156 C 305.714844 215.074219 304.957031 216.09375 304.476562 217.289062 C 304.199219 215.464844 303.824219 213.710938 303.34375 212.042969 C 303.765625 211.78125 304.183594 211.566406 304.328125 211.484375 C 305.488281 210.828125 306.726562 210.332031 307.921875 209.742188 C 308.917969 209.25 309.953125 208.808594 310.472656 207.75 C 311.058594 206.550781 310 205.390625 308.929688 205.066406 C 307.542969 204.648438 306.347656 205.480469 305.285156 206.269531 C 304.019531 207.210938 303.179688 208.476562 302.734375 209.984375 C 302.726562 210.011719 302.71875 210.039062 302.710938 210.0625 C 302.445312 209.300781 302.160156 208.550781 301.847656 207.828125 C 301.34375 206.65625 300.769531 205.550781 300.160156 204.492188 C 300.527344 203.964844 301.027344 203.414062 301.167969 203.25 C 302.03125 202.234375 303.019531 201.335938 303.9375 200.367188 C 304.703125 199.5625 305.523438 198.789062 305.640625 197.613281 C 305.773438 196.289062 304.382812 195.566406 303.265625 195.632812 C 301.816406 195.722656 300.984375 196.917969 300.261719 198.027344 C 299.398438 199.347656 299.050781 200.824219 299.15625 202.390625 C 299.167969 202.554688 299.179688 202.726562 299.195312 202.90625 C 298 201.046875 296.71875 199.371094 295.5 197.867188 C 295.757812 197.21875 296.28125 196.40625 296.410156 196.1875 C 297.09375 195.042969 297.921875 193.992188 298.664062 192.886719 C 299.285156 191.964844 299.964844 191.070312 299.886719 189.890625 C 299.800781 188.5625 298.304688 188.078125 297.214844 188.332031 C 295.804688 188.660156 295.179688 189.976562 294.652344 191.191406 C 294.019531 192.636719 293.925781 194.148438 294.289062 195.679688 C 294.425781 196.257812 294.597656 196.984375 294.859375 197.632812 L 294.523438 197.910156 C 293.9375 197.527344 293.257812 197.214844 292.714844 196.96875 C 291.835938 196.566406 290.925781 196.339844 290 196.300781 C 289.84375 196.292969 289.691406 196.296875 289.535156 196.300781 L 288.089844 173.523438 L 288.015625 173.527344 L 289.460938 196.304688 C 289.308594 196.308594 289.15625 196.320312 289 196.335938 C 288.75 196.363281 288.496094 196.398438 288.242188 196.457031 C 286.949219 196.738281 285.535156 197.097656 284.941406 198.417969 C 284.480469 199.4375 284.664062 201 285.953125 201.34375 C 287.089844 201.648438 288.101562 201.15625 289.128906 200.726562 C 289.179688 200.703125 289.226562 200.683594 289.273438 200.660156 C 289.425781 200.597656 289.578125 200.527344 289.726562 200.460938 L 289.894531 203.074219 C 289.746094 203.207031 289.605469 203.359375 289.484375 203.542969 C 289.476562 203.554688 289.46875 203.570312 289.460938 203.582031 C 288.933594 204.410156 288.828125 205.703125 289.636719 206.367188 C 289.742188 206.453125 289.859375 206.53125 289.996094 206.59375 C 290.039062 206.613281 290.078125 206.621094 290.121094 206.640625 L 290.5625 213.628906 L 290.101562 213.683594 C 290.101562 213.675781 290.101562 213.667969 290.101562 213.660156 C 290.058594 213.414062 289.992188 213.171875 289.878906 212.925781 C 289.320312 211.71875 287.75 211.808594 286.824219 212.4375 C 285.628906 213.25 285.519531 214.703125 285.464844 216.027344 C 285.394531 217.601562 285.851562 219.050781 286.742188 220.347656 C 286.792969 220.421875 286.847656 220.5 286.902344 220.578125 C 286.097656 220.226562 285.269531 219.90625 284.410156 219.617188 C 283.34375 219.261719 282.257812 218.921875 281.15625 218.609375 C 280.9375 217.941406 280.835938 216.90625 280.796875 216.640625 C 280.617188 215.320312 280.613281 213.984375 280.503906 212.65625 C 280.414062 211.546875 280.386719 210.421875 279.59375 209.546875 C 278.695312 208.566406 277.226562 209.117188 276.53125 209.996094 C 275.632812 211.132812 275.964844 212.550781 276.304688 213.832031 C 276.714844 215.355469 277.582031 216.597656 278.820312 217.570312 C 279.070312 217.765625 279.359375 217.992188 279.667969 218.210938 C 277.492188 217.664062 275.277344 217.285156 273.085938 217.21875 C 272.589844 216.734375 272 215.628906 271.851562 215.375 C 271.183594 214.222656 270.664062 212.988281 270.058594 211.804688 C 269.550781 210.816406 269.09375 209.785156 268.027344 209.28125 C 266.820312 208.714844 265.675781 209.789062 265.367188 210.867188 C 264.972656 212.261719 265.820312 213.445312 266.628906 214.496094 C 267.585938 215.746094 268.863281 216.566406 270.378906 216.988281 C 270.992188 217.160156 271.769531 217.371094 272.507812 217.449219 L 272.507812 217.828125 C 271.867188 218.160156 271.242188 218.621094 270.746094 218.988281 C 269.480469 219.921875 268.582031 221.144531 268.128906 222.65625 C 267.75 223.925781 267.378906 225.332031 268.246094 226.496094 C 268.917969 227.390625 270.371094 227.984375 271.292969 227.027344 C 272.113281 226.175781 272.171875 225.054688 272.292969 223.945312 C 272.4375 222.621094 272.480469 221.285156 272.699219 219.972656 C 272.738281 219.730469 272.851562 218.859375 273.046875 218.203125 C 275.277344 218.25 277.539062 218.667969 279.765625 219.253906 C 279.277344 219.339844 278.796875 219.457031 278.390625 219.554688 C 276.867188 219.9375 275.566406 220.71875 274.574219 221.941406 C 273.738281 222.972656 272.855469 224.128906 273.214844 225.535156 C 273.492188 226.621094 274.605469 227.726562 275.824219 227.191406 C 276.90625 226.722656 277.390625 225.703125 277.925781 224.726562 C 278.566406 223.558594 279.117188 222.34375 279.820312 221.210938 C 279.960938 220.988281 280.46875 220.101562 280.9375 219.578125 C 282 219.886719 283.054688 220.222656 284.089844 220.566406 C 285.664062 221.09375 287.125 221.71875 288.492188 222.449219 C 288.605469 222.542969 288.726562 222.632812 288.84375 222.703125 C 287.988281 222.253906 286.675781 222.171875 285.738281 222.117188 C 284.171875 222.023438 282.695312 222.378906 281.382812 223.25 C 280.277344 223.980469 279.089844 224.820312 279.007812 226.269531 C 278.949219 227.386719 279.683594 228.777344 281.003906 228.632812 C 282.179688 228.507812 282.945312 227.683594 283.746094 226.910156 C 284.707031 225.988281 285.597656 224.992188 286.609375 224.121094 C 286.902344 223.867188 288.398438 222.472656 288.847656 222.703125 C 288.847656 222.703125 288.847656 222.707031 288.847656 222.707031 C 288.847656 222.707031 288.847656 222.703125 288.847656 222.703125 C 288.847656 222.703125 288.847656 222.703125 288.847656 222.707031 C 288.847656 222.703125 288.847656 222.703125 288.847656 222.703125 C 288.808594 222.679688 288.777344 222.640625 288.753906 222.59375 C 289.441406 222.96875 290.101562 223.371094 290.742188 223.804688 C 290.90625 223.917969 291.066406 224.039062 291.230469 224.15625 L 291.351562 226.074219 C 291.195312 226.097656 291.042969 226.125 290.890625 226.15625 C 290.066406 226.332031 289.28125 226.652344 288.542969 227.140625 C 287.441406 227.871094 286.25 228.714844 286.171875 230.160156 C 286.113281 231.277344 286.84375 232.667969 288.167969 232.527344 C 289.34375 232.398438 290.109375 231.574219 290.910156 230.800781 C 290.996094 230.71875 291.082031 230.632812 291.171875 230.546875 C 291.316406 230.402344 291.460938 230.253906 291.605469 230.105469 L 292.0625 237.289062 L 286.546875 237.289062 C 286.570312 239.035156 286.65625 245.308594 286.761719 250.832031 C 286.789062 252.441406 287.101562 254.074219 287.683594 255.691406 L 287.910156 256.3125 L 238.828125 256.3125 L 237.953125 255.234375 C 237.023438 254.074219 236.367188 253.238281 236.367188 253.238281 L 236.125 252.925781 L 236.257812 252.78125 C 236.5625 252.890625 236.730469 252.949219 236.730469 252.949219 C 236.75 252.925781 261.078125 226.15625 261.03125 215.738281 C 261.011719 211.597656 258.339844 206.292969 255.363281 203.492188 C 253.644531 201.878906 250.214844 198.929688 246.652344 195.78125 L 245.949219 195.78125 L 245.425781 195.316406 L 288.457031 195.316406 L 288.457031 195.242188 L 245.347656 195.242188 L 245.214844 195.125 C 245.078125 195.007812 244.957031 194.894531 244.824219 194.78125 L 245.523438 194.78125 C 240.609375 190.410156 235.75 185.886719 235.019531 184.136719 C 234.160156 182.070312 233.84375 178.410156 234.011719 176.128906 L 233.933594 176.125 L 233.546875 176.117188 C 233.546875 176.109375 233.546875 176.101562 233.546875 176.09375 C 233.554688 175.945312 233.601562 174.695312 233.660156 172.953125 L 233.671875 172.503906 L 296.460938 172.597656 L 296.460938 170.640625 L 279.859375 170.617188 L 280.386719 170.152344 L 281.089844 170.152344 C 281.226562 170.035156 281.355469 169.898438 281.472656 169.75 C 281.589844 169.609375 281.695312 169.449219 281.796875 169.285156 L 295.460938 169.285156 L 295.460938 126.433594 C 295.460938 120.042969 288.175781 114.027344 284.867188 114.011719 C 284.417969 114.011719 283.957031 113.996094 283.496094 113.964844 L 283.300781 113.953125 L 283.175781 113.808594 C 283.042969 113.660156 282.867188 113.578125 282.675781 113.578125 L 280.683594 113.574219 L 280.503906 113.378906 L 280.4375 113.308594 C 280.027344 112.898438 279.441406 112.671875 278.785156 112.671875 C 278.089844 112.671875 277.433594 112.929688 276.984375 113.382812 L 275.960938 114.40625 L 275.6875 114.316406 C 274.941406 114.070312 274.148438 113.945312 273.332031 113.945312 C 271.324219 113.945312 269.417969 114.695312 268.109375 116.007812 L 265.03125 119.082031 L 274.71875 128.773438 L 277.792969 125.695312 C 279.90625 123.582031 280.636719 120.339844 279.570312 117.808594 L 279.445312 117.523438 L 280.285156 116.683594 C 280.65625 116.3125 280.917969 115.820312 281.019531 115.296875 L 281.09375 114.921875 L 282.667969 114.925781 C 282.980469 114.925781 283.25 114.714844 283.324219 114.410156 L 283.414062 114.035156 L 283.800781 114.054688 C 284.128906 114.070312 284.484375 114.082031 284.867188 114.085938 C 288.242188 114.097656 295.390625 119.949219 295.390625 126.433594 L 295.390625 168.214844 L 282.265625 168.214844 C 282.3125 168.0625 282.355469 167.910156 282.386719 167.75 L 287.820312 140.253906 C 288.289062 137.875 286.933594 135.714844 285.082031 135.714844 L 241.828125 135.714844 C 240.542969 135.714844 239.417969 136.605469 239.09375 138.257812 L 238.929688 139.089844 L 238.773438 139.875 L 238.507812 139.28125 C 238.199219 138.605469 237.902344 137.992188 237.601562 137.414062 C 235.332031 133.113281 232.609375 128.242188 229.027344 124.902344 L 228.871094 124.753906 L 230.167969 100.933594 L 230.546875 100.882812 C 231.132812 100.804688 231.335938 100.722656 231.398438 100.691406 C 231.714844 100.53125 232.367188 99.140625 232.445312 96.640625 C 232.515625 94.367188 232.136719 86.585938 224.214844 81.953125 C 222.53125 80.96875 217.660156 80.28125 214.34375 80.28125 C 213.828125 80.28125 213.386719 80.300781 213.03125 80.335938 C 201.660156 81.492188 195.128906 87.589844 195.113281 97.0625 C 195.113281 97.207031 195.117188 97.347656 195.121094 97.488281 L 195.125 97.695312 L 195.09375 98.167969 L 194.964844 98.167969 C 194.492188 100.230469 194.421875 108.640625 194.777344 122.0625 L 194.785156 122.363281 L 194.511719 122.492188 C 193.875 122.800781 193.351562 123.070312 192.960938 123.300781 C 189.097656 125.527344 184.414062 128.710938 182.488281 133.546875 C 179.53125 140.980469 178.972656 145.027344 178.203125 150.636719 C 177.992188 152.148438 177.777344 153.714844 177.496094 155.507812 C 177.359375 156.5 177.160156 157.566406 176.953125 158.691406 C 176.074219 163.445312 175.078125 168.832031 177.660156 172.53125 C 179.140625 174.652344 181.621094 175.980469 185.242188 176.601562 L 185.800781 176.695312 L 185.632812 177.132812 C 185.476562 177.109375 185.320312 177.085938 185.167969 177.058594 C 185.167969 177.058594 185.164062 177.058594 185.164062 177.058594 C 183.445312 181.566406 181.980469 186.058594 181.457031 190.777344 C 181.4375 190.929688 181.429688 191.085938 181.414062 191.242188 L 179.980469 191.242188 C 178.53125 191.242188 177.101562 191.507812 175.847656 192.007812 L 175.113281 192.296875 L 175.222656 191.453125 C 175.230469 191.402344 175.238281 191.355469 175.238281 191.308594 C 175.238281 191.117188 175.199219 190.917969 175.117188 190.703125 L 175.054688 190.539062 L 175.117188 190.375 C 175.199219 190.164062 175.238281 189.964844 175.238281 189.773438 C 175.238281 187.234375 169.1875 184.679688 159.820312 183.253906 L 159.820312 159.777344 C 159.820312 158.449219 155.53125 153.363281 155.53125 152.257812 C 155.53125 151.746094 155.527344 151.605469 155.523438 151.164062 C 155.402344 151.265625 155.242188 151.359375 155.0625 151.449219 L 155.054688 150.949219 L 155.21875 150.808594 C 155.324219 150.71875 155.351562 150.660156 155.351562 150.660156 L 155.15625 148.066406 C 155.136719 148.015625 155.105469 147.941406 155.082031 147.902344 C 154.902344 147.59375 153.917969 147.140625 152.378906 147.140625 C 150.949219 147.140625 149.964844 147.640625 149.71875 147.992188 L 149.652344 148.089844 L 149.652344 148.40625 C 149.652344 148.40625 149.515625 150.664062 149.515625 150.695312 C 149.515625 150.695312 149.519531 150.710938 149.542969 150.746094 L 149.628906 150.871094 C 149.628906 150.871094 149.617188 151.191406 149.609375 151.386719 C 149.40625 151.273438 149.253906 151.144531 149.160156 151.007812 C 149.140625 151.578125 149.125 151.691406 149.125 152.257812 C 149.125 153.363281 144.808594 158.449219 144.808594 159.777344 L 144.808594 182.066406 L 144.800781 182.066406 C 144.019531 182.050781 143.238281 182.042969 142.445312 182.042969 C 141.558594 182.042969 140.683594 182.054688 139.8125 182.070312 L 139.339844 182.078125 L 139.339844 165.136719 C 139.339844 162.867188 137.554688 160.996094 135.277344 160.878906 L 134.835938 160.855469 L 134.835938 158.269531 L 135.613281 158.316406 C 135.828125 158.328125 136.03125 158.34375 136.210938 158.34375 C 136.75 158.34375 136.835938 158.261719 136.835938 157.769531 L 136.835938 156.003906 C 136.835938 154.777344 135.828125 153.199219 134.757812 153.199219 L 129.96875 153.199219 C 128.851562 153.199219 127.757812 154.804688 127.757812 156.003906 L 127.757812 157.941406 C 127.757812 158.207031 127.757812 158.398438 128.679688 158.398438 C 128.824219 158.398438 128.972656 158.394531 129.125 158.390625 L 129.757812 158.375 L 129.757812 160.925781 L 129.371094 160.988281 C 126.5625 161.453125 125.257812 162.769531 125.257812 165.136719 L 125.257812 183.226562 L 124.863281 183.289062 C 115.621094 184.71875 109.648438 187.261719 109.648438 189.773438 C 109.648438 189.964844 109.6875 190.164062 109.769531 190.378906 L 109.832031 190.542969 L 109.769531 190.707031 C 109.6875 190.917969 109.648438 191.117188 109.648438 191.308594 C 109.648438 194.96875 122.570312 198.949219 141.808594 199.039062 L 142.269531 199.039062 L 142.269531 302.867188 L 141.816406 302.878906 C 133.988281 303.070312 129.65625 304.757812 129.65625 305.851562 C 129.65625 307.097656 134.8125 308.839844 143.207031 308.839844 C 151.601562 308.839844 156.757812 307.101562 156.757812 305.851562 C 156.757812 304.660156 151.828125 302.949219 143.800781 302.867188 L 143.34375 302.859375 L 143.34375 199.035156 L 143.800781 199.03125 C 155.203125 198.917969 165.738281 197.328125 171.296875 194.878906 L 172.367188 194.40625 L 171.910156 195.484375 C 171.664062 196.070312 171.546875 196.671875 171.5625 197.273438 C 171.632812 199.851562 174.152344 202.21875 177.6875 203.027344 L 178.074219 203.117188 L 170.476562 309.300781 L 170.511719 309.339844 C 170.527344 309.339844 170.546875 309.328125 170.546875 309.304688 L 178.144531 203.136719 L 178.640625 203.207031 C 179.207031 203.285156 179.78125 203.328125 180.34375 203.328125 L 182.773438 203.328125 C 182.828125 203.484375 182.878906 203.636719 182.933594 203.792969 C 183.984375 206.742188 185.382812 209.613281 186.640625 212.191406 C 189.246094 217.53125 191.8125 224.078125 193.570312 229.949219 C 194.414062 232.761719 194.6875 235.691406 195.054688 238.574219 C 197.148438 254.984375 200.660156 271.6875 200.652344 288.257812 L 204.703125 288.339844 L 205.167969 288.347656 C 205.253906 290.097656 205.164062 291.527344 204.910156 292.601562 C 204.378906 294.835938 206.136719 297.6875 208.574219 301.632812 C 209.042969 302.398438 209.542969 303.203125 210.058594 304.058594 C 212.007812 307.300781 215.109375 308.457031 217.359375 308.457031 C 218.558594 308.457031 219.636719 308.140625 220.398438 307.570312 L 221.207031 306.964844 L 221.085938 308.835938 L 221.160156 308.84375 L 224.492188 256.386719 L 225.214844 256.386719 L 225.300781 256.425781 C 225.894531 256.679688 227.917969 257.539062 230.273438 258.519531 C 231.78125 259.15625 233.140625 259.734375 234.335938 260.226562 L 234.601562 260.335938 L 238.105469 309.308594 C 238.105469 309.320312 238.117188 309.332031 238.128906 309.335938 L 238.167969 309.300781 L 238.175781 309.300781 L 234.675781 260.367188 L 235.363281 260.644531 C 236.730469 261.195312 238.632812 261.933594 239.417969 261.996094 L 239.445312 262 C 239.445312 262 239.539062 262.003906 239.585938 262.003906 C 240 262.003906 240.421875 261.898438 240.765625 261.703125 C 241.046875 261.546875 241.410156 261.261719 241.527344 260.789062 C 241.734375 259.972656 241.128906 259.101562 240.441406 258.28125 C 240.128906 257.90625 239.8125 257.523438 239.503906 257.148438 L 238.882812 256.386719 L 287.953125 256.386719 L 288.074219 256.667969 C 289.8125 260.695312 292.773438 263.492188 293.636719 264.253906 L 293.78125 264.378906 L 293.84375 265.324219 L 283.4375 265.324219 C 281.957031 265.324219 280.65625 266.746094 280.65625 268.367188 C 280.65625 269.984375 281.957031 271.40625 283.4375 271.40625 L 289.007812 271.40625 L 288.914062 271.867188 L 288.441406 271.867188 C 287.445312 276.898438 286.445312 281.925781 285.449219 286.957031 C 284.851562 289.953125 284.257812 292.949219 283.660156 295.949219 C 283.082031 298.859375 282.394531 301.769531 281.941406 304.699219 C 281.773438 305.8125 281.75 306.996094 282.375 307.984375 C 282.890625 308.804688 283.789062 309.375 284.785156 309.296875 C 286.8125 309.132812 287.527344 306.734375 287.933594 305.117188 C 289.378906 299.34375 290.925781 293.59375 292.570312 287.875 C 293.171875 285.789062 293.789062 283.707031 294.414062 281.628906 C 294.421875 281.601562 294.429688 281.574219 294.4375 281.546875 L 294.875 281.597656 L 296.605469 308.839844 L 296.679688 308.835938 L 294.855469 280.152344 C 294.984375 279.726562 295.113281 279.304688 295.242188 278.878906 C 295.949219 276.539062 296.667969 274.203125 297.386719 271.867188 L 296.902344 271.867188 C 296.917969 271.820312 296.929688 271.777344 296.945312 271.730469 L 297.046875 271.402344 L 311.296875 271.402344 L 311.394531 271.730469 C 311.410156 271.777344 311.425781 271.824219 311.4375 271.867188 L 310.953125 271.867188 C 312.59375 277.191406 314.226562 282.519531 315.769531 287.871094 C 317.414062 293.59375 318.960938 299.34375 320.40625 305.117188 C 320.816406 306.734375 321.527344 309.128906 323.554688 309.296875 C 324.554688 309.375 325.449219 308.804688 325.96875 307.980469 C 326.589844 306.996094 326.570312 305.8125 326.398438 304.699219 C 325.945312 301.769531 325.257812 298.859375 324.679688 295.949219 C 324.082031 292.949219 323.488281 289.953125 322.890625 286.957031 C 321.894531 281.925781 320.898438 276.898438 319.898438 271.867188 L 319.425781 271.867188 L 319.332031 271.402344 L 324.902344 271.402344 C 326.382812 271.402344 327.683594 269.984375 327.683594 268.367188 C 327.683594 266.746094 326.382812 265.324219 324.902344 265.324219 L 313.085938 265.324219 L 314.121094 264.5 C 314.191406 264.441406 321.144531 258.796875 321.289062 250.835938 C 321.390625 245.3125 321.480469 239.039062 321.503906 237.292969 L 313.398438 237.292969 L 313.433594 236.828125 L 313.898438 236.828125 C 314.207031 232.375 315.421875 228.046875 316.71875 224.015625 C 317.355469 224.007812 318.074219 224.089844 318.289062 224.109375 C 319.617188 224.214844 320.925781 224.496094 322.242188 224.675781 C 323.347656 224.828125 324.449219 225.042969 325.472656 224.453125 C 326.628906 223.789062 326.402344 222.234375 325.695312 221.367188 C 324.777344 220.242188 323.324219 220.265625 322 220.324219 C 320.425781 220.394531 319.023438 220.976562 317.8125 221.976562 C 317.628906 222.125 317.429688 222.289062 317.226562 222.46875 C 317.375 222.015625 317.523438 221.566406 317.671875 221.125 C 318.191406 219.566406 318.738281 218.058594 319.308594 216.589844 C 319.984375 216.457031 321.242188 216.605469 321.539062 216.628906 C 322.867188 216.738281 324.175781 217.019531 325.492188 217.199219 C 326.59375 217.347656 327.699219 217.566406 328.722656 216.976562 C 329.875 216.308594 329.652344 214.757812 328.945312 213.890625 C 328.027344 212.765625 326.570312 212.785156 325.246094 212.847656 C 323.671875 212.917969 322.269531 213.496094 321.058594 214.5 C 320.621094 214.863281 320.074219 215.316406 319.617188 215.808594 C 320.574219 213.40625 321.605469 211.125 322.722656 208.9375 C 323.332031 209.058594 323.984375 209.269531 324.183594 209.328125 C 325.46875 209.695312 326.691406 210.226562 327.949219 210.660156 C 329.003906 211.023438 330.042969 211.453125 331.160156 211.074219 C 332.421875 210.648438 332.507812 209.082031 331.984375 208.09375 C 331.304688 206.808594 329.875 206.542969 328.566406 206.34375 C 327.007812 206.101562 325.519531 206.398438 324.132812 207.140625 C 323.929688 207.25 323.710938 207.367188 323.480469 207.496094 C 324.476562 205.652344 325.535156 203.875 326.664062 202.15625 C 327.351562 202.160156 328.550781 202.550781 328.835938 202.632812 C 330.117188 203 331.34375 203.53125 332.601562 203.964844 C 333.652344 204.328125 334.695312 204.757812 335.8125 204.378906 C 337.074219 203.953125 337.15625 202.386719 336.632812 201.398438 C 335.957031 200.113281 334.523438 199.851562 333.214844 199.648438 C 331.65625 199.410156 330.167969 199.703125 328.785156 200.445312 C 328.292969 200.707031 327.691406 201.035156 327.15625 201.414062 C 328.539062 199.367188 330.023438 197.398438 331.628906 195.492188 C 332.277344 195.695312 333.046875 196.074219 333.265625 196.171875 C 334.480469 196.722656 335.613281 197.425781 336.796875 198.039062 C 337.78125 198.554688 338.75 199.128906 339.914062 198.917969 C 341.222656 198.679688 341.53125 197.140625 341.160156 196.085938 Z M 225.78125 236.054688 L 227.472656 209.425781 L 227.914062 209.816406 L 227.875 210.40625 C 228.855469 211.28125 229.820312 212.140625 230.742188 212.960938 C 230.914062 213.113281 231.074219 213.257812 231.242188 213.40625 L 232.214844 227.035156 C 232.074219 227.238281 231.9375 227.4375 231.796875 227.648438 C 229.960938 230.332031 227.972656 233.316406 226.246094 236.085938 L 226.238281 236.203125 Z M 231.816406 213.914062 C 235.183594 216.914062 237.738281 219.179688 237.738281 219.179688 C 237.738281 219.179688 235.507812 222.257812 232.703125 226.324219 C 232.566406 226.523438 232.421875 226.734375 232.28125 226.9375 L 231.320312 213.472656 C 231.484375 213.621094 231.65625 213.773438 231.816406 213.914062 Z M 225.0625 238.925781 L 225.125 237.90625 C 223.011719 241.417969 221.523438 244.335938 221.644531 245.421875 C 221.675781 245.722656 221.972656 246.074219 222.453125 246.460938 C 222.570312 246.554688 222.699219 246.652344 222.839844 246.75 L 222.644531 247.25 L 220.339844 252.949219 C 220.5 253.878906 221.304688 254.78125 222.375 255.214844 C 222.972656 255.460938 223.558594 255.699219 224.132812 255.9375 L 224.4375 256.066406 L 221.242188 306.398438 L 220.472656 304.820312 C 220.085938 304.027344 219.589844 303.097656 219.011719 302.019531 C 217.921875 299.984375 216.566406 297.449219 215.535156 294.972656 C 214.734375 293.066406 214.058594 290.933594 213.519531 288.632812 L 213.492188 288.519531 L 213.96875 288.527344 L 216.996094 288.589844 C 217.054688 270.996094 220.453125 253.332031 219.667969 235.867188 C 219.441406 230.808594 218.96875 226.222656 217.996094 221.199219 C 216.992188 215.996094 215.660156 211.019531 214.320312 205.90625 C 214.136719 205.203125 213.988281 204.5 213.855469 203.792969 C 213.828125 203.636719 213.804688 203.484375 213.777344 203.328125 L 219.976562 203.328125 C 220.144531 203.480469 220.3125 203.632812 220.488281 203.792969 C 222.394531 205.507812 224.664062 207.539062 226.925781 209.558594 L 226.964844 208.96875 C 227.054688 209.050781 227.144531 209.132812 227.234375 209.210938 L 227.402344 209.363281 L 225.582031 238.050781 L 225.523438 238.148438 C 225.359375 238.417969 225.210938 238.671875 225.0625 238.925781 Z M 289.792969 200.433594 C 289.945312 200.367188 290.097656 200.300781 290.246094 200.234375 C 291.089844 199.855469 291.929688 199.464844 292.800781 199.15625 C 293.058594 199.066406 294.074219 198.660156 294.769531 198.5625 C 296.242188 200.375 297.792969 202.441406 299.160156 204.773438 C 298.621094 204.242188 297.933594 203.773438 297.390625 203.40625 C 296.089844 202.523438 294.640625 202.078125 293.066406 202.15625 C 292.152344 202.199219 291.1875 202.28125 290.40625 202.710938 C 290.25 202.800781 290.097656 202.902344 289.960938 203.019531 Z M 290.191406 206.667969 C 290.347656 206.722656 290.503906 206.769531 290.664062 206.796875 C 291.515625 206.949219 292.371094 206.714844 293.230469 206.511719 C 294.527344 206.210938 295.800781 205.808594 297.113281 205.574219 C 297.433594 205.519531 298.878906 205.207031 299.5 205.355469 C 300.015625 206.273438 300.496094 207.226562 300.929688 208.226562 C 301.4375 209.402344 301.882812 210.628906 302.265625 211.90625 C 302.203125 212.328125 302.179688 212.742188 302.230469 213.109375 C 302.042969 212.160156 301.277344 211.085938 300.730469 210.324219 C 299.816406 209.046875 298.609375 208.125 297.105469 207.652344 C 295.839844 207.257812 294.4375 206.863281 293.265625 207.714844 C 292.359375 208.371094 291.742188 209.8125 292.6875 210.753906 C 293.523438 211.585938 294.648438 211.660156 295.753906 211.796875 C 297.074219 211.960938 298.40625 212.027344 299.71875 212.261719 C 300.101562 212.332031 302.128906 212.617188 302.230469 213.109375 C 302.214844 212.984375 302.3125 212.835938 302.476562 212.675781 C 303.09375 214.902344 303.53125 217.273438 303.78125 219.78125 C 303.703125 220.25 303.664062 220.714844 303.722656 221.125 C 303.707031 221.027344 303.769531 220.914062 303.875 220.789062 C 303.984375 222.164062 304.046875 223.574219 304.050781 225.023438 C 304.050781 225.777344 304.039062 226.539062 304.023438 227.304688 C 303.839844 226.917969 303.644531 226.550781 303.476562 226.230469 C 302.738281 224.84375 301.664062 223.773438 300.234375 223.105469 C 299.035156 222.546875 297.695312 221.96875 296.421875 222.660156 C 296.386719 222.679688 296.355469 222.703125 296.320312 222.722656 C 296.53125 221.832031 296.777344 220.949219 296.980469 220.058594 C 297 219.96875 297.019531 219.878906 297.042969 219.789062 C 297.109375 219.796875 297.175781 219.804688 297.242188 219.8125 C 298.5625 219.976562 299.898438 220.042969 301.210938 220.277344 C 301.59375 220.347656 303.625 220.632812 303.722656 221.125 C 303.535156 220.175781 302.769531 219.101562 302.222656 218.339844 C 301.304688 217.0625 300.101562 216.140625 298.597656 215.667969 C 297.332031 215.273438 295.929688 214.878906 294.757812 215.726562 C 294.601562 215.84375 294.457031 215.984375 294.324219 216.140625 C 294.207031 216.195312 294.089844 216.257812 293.988281 216.328125 C 292.789062 217.144531 292.679688 218.597656 292.625 219.921875 C 292.558594 221.496094 293.011719 222.945312 293.902344 224.238281 C 294.433594 225.011719 295.183594 226.101562 296.011719 226.597656 C 295.882812 226.523438 295.835938 226.285156 295.828125 225.992188 C 296.527344 226.601562 297.445312 226.800781 298.347656 227.035156 C 299.636719 227.375 300.949219 227.613281 302.21875 228.019531 C 302.460938 228.097656 303.359375 228.351562 303.980469 228.660156 C 303.886719 231.15625 303.691406 233.730469 303.398438 236.402344 C 303.269531 235.644531 302.972656 234.839844 302.738281 234.21875 C 302.191406 232.746094 301.265625 231.542969 299.9375 230.691406 C 299.363281 230.324219 298.753906 229.949219 298.113281 229.742188 C 297.320312 228.632812 296.480469 227.601562 295.585938 226.65625 C 295.761719 226.578125 295.914062 226.546875 296.011719 226.597656 C 295.785156 226.480469 295.523438 226.386719 295.25 226.3125 C 294.148438 225.191406 292.972656 224.183594 291.710938 223.289062 C 291.550781 223.175781 291.386719 223.070312 291.226562 222.957031 Z M 290.597656 214.25 L 291.148438 222.90625 C 290.988281 222.796875 290.828125 222.683594 290.664062 222.578125 C 290.023438 222.171875 289.367188 221.789062 288.691406 221.433594 C 288.75 220.851562 288.871094 220.25 288.90625 220.054688 C 289.128906 218.742188 289.523438 217.464844 289.816406 216.167969 C 289.960938 215.535156 290.121094 214.90625 290.136719 214.277344 C 290.136719 214.273438 290.136719 214.265625 290.136719 214.257812 Z M 291.304688 224.210938 C 291.46875 224.328125 291.632812 224.441406 291.792969 224.5625 C 292.40625 225.027344 292.996094 225.527344 293.566406 226.054688 C 293.332031 226.035156 293.109375 226.023438 292.902344 226.011719 C 292.558594 225.988281 292.21875 225.996094 291.882812 226.019531 C 291.730469 226.027344 291.574219 226.046875 291.421875 226.066406 Z M 289.191406 271.402344 L 294.230469 271.402344 L 294.582031 276.980469 C 294.453125 277.390625 294.324219 277.796875 294.195312 278.207031 C 291.980469 285.28125 289.992188 292.433594 288.136719 299.605469 C 287.792969 300.933594 287.453125 302.257812 287.121094 303.585938 C 286.847656 304.675781 286.664062 305.84375 286.148438 306.851562 C 285.707031 307.71875 284.828125 308.648438 283.824219 307.910156 C 282.6875 307.082031 282.960938 305.460938 283.1875 304.285156 C 284.257812 298.816406 285.34375 293.355469 286.421875 287.886719 C 287.472656 282.546875 288.523438 277.207031 289.574219 271.867188 L 289.101562 271.867188 Z M 296.25 271.867188 C 295.835938 273.097656 295.429688 274.332031 295.03125 275.566406 C 295.023438 275.59375 295.011719 275.621094 295.003906 275.652344 L 294.566406 275.597656 L 294.300781 271.40625 L 296.894531 271.40625 L 296.738281 271.867188 Z M 292.136719 237.292969 L 291.675781 230.042969 C 291.820312 229.894531 291.964844 229.75 292.113281 229.601562 C 292.648438 229.058594 293.191406 228.515625 293.769531 228.015625 C 293.90625 227.898438 294.304688 227.535156 294.734375 227.203125 C 295.445312 227.945312 296.121094 228.746094 296.769531 229.601562 C 296.585938 229.628906 296.402344 229.671875 296.214844 229.746094 C 295.167969 230.140625 294.199219 231.375 294.863281 232.527344 C 295.453125 233.550781 296.519531 233.917969 297.546875 234.335938 C 298.25 234.625 298.960938 234.882812 299.667969 235.15625 C 299.835938 235.707031 299.984375 236.261719 300.117188 236.828125 L 300.597656 236.828125 L 300.707031 237.292969 Z M 319.148438 271.402344 L 319.242188 271.867188 L 318.769531 271.867188 C 319.816406 277.207031 320.871094 282.546875 321.921875 287.890625 C 322.996094 293.355469 324.085938 298.816406 325.152344 304.285156 C 325.382812 305.460938 325.65625 307.082031 324.519531 307.910156 C 323.511719 308.648438 322.632812 307.71875 322.191406 306.851562 C 321.679688 305.84375 321.492188 304.675781 321.21875 303.585938 C 320.886719 302.257812 320.550781 300.933594 320.207031 299.605469 C 317.796875 290.285156 315.167969 281 312.09375 271.867188 L 311.601562 271.867188 L 311.445312 271.40625 L 319.148438 271.40625 Z M 313.355469 236.859375 L 313.328125 237.292969 L 300.777344 237.292969 L 300.695312 236.933594 C 300.6875 236.898438 300.675781 236.863281 300.667969 236.828125 L 301.144531 236.828125 C 301.054688 236.433594 300.957031 236.039062 300.847656 235.644531 C 300.984375 235.707031 301.121094 235.761719 301.253906 235.824219 C 301.511719 235.945312 302.558594 236.398438 303.113281 236.828125 L 303.867188 236.828125 L 303.886719 236.84375 L 303.890625 236.828125 L 304.355469 236.828125 C 304.363281 236.785156 304.367188 236.746094 304.371094 236.703125 C 304.976562 236.488281 305.695312 236.332031 305.90625 236.277344 C 307.199219 235.949219 308.527344 235.792969 309.832031 235.535156 C 310.925781 235.320312 312.039062 235.167969 312.816406 234.277344 C 313.691406 233.277344 312.976562 231.878906 312.027344 231.289062 C 310.796875 230.519531 309.425781 231.011719 308.191406 231.496094 C 306.726562 232.074219 305.585938 233.074219 304.761719 234.414062 C 304.703125 234.511719 304.640625 234.613281 304.578125 234.71875 C 304.769531 232.671875 304.90625 230.683594 304.980469 228.738281 C 305.558594 228.34375 306.628906 227.960938 306.886719 227.855469 C 308.125 227.363281 309.421875 227.03125 310.679688 226.605469 C 311.734375 226.246094 312.820312 225.949219 313.472656 224.964844 C 314.210938 223.855469 313.316406 222.566406 312.296875 222.105469 C 310.976562 221.507812 309.679688 222.171875 308.523438 222.816406 C 307.144531 223.582031 306.148438 224.726562 305.507812 226.164062 C 305.355469 226.503906 305.179688 226.902344 305.023438 227.320312 C 305.042969 226.546875 305.050781 225.78125 305.050781 225.023438 C 305.050781 223.320312 304.96875 221.667969 304.820312 220.066406 C 305.25 219.804688 305.671875 219.582031 305.816406 219.5 C 306.957031 218.859375 308.175781 218.363281 309.347656 217.789062 C 309.734375 218.5 310.386719 219.019531 311.011719 219.566406 C 312.011719 220.441406 313.082031 221.246094 314.039062 222.175781 C 314.285156 222.414062 315.496094 223.507812 315.648438 224.082031 C 314.367188 228.089844 313.191406 232.382812 312.894531 236.828125 L 313.359375 236.828125 C 313.359375 236.839844 313.355469 236.847656 313.355469 236.859375 Z M 149.203125 148.109375 C 149.203125 148.121094 149.195312 148.222656 149.1875 148.378906 C 149.1875 148.175781 149.1875 147.960938 149.1875 147.730469 L 149.335938 147.730469 C 149.25 147.855469 149.203125 147.980469 149.203125 148.109375 Z M 149.203125 148.109375 " fill-opacity="1" fill-rule="nonzero"/></g><path fill="#77ddee" d="M 222.453125 246.460938 C 222.957031 246.863281 223.664062 247.304688 224.5 247.761719 L 223.953125 256.367188 C 223.382812 256.128906 222.796875 255.890625 222.199219 255.644531 C 221.03125 255.167969 220.007812 254.128906 219.863281 252.890625 L 222.210938 247.074219 Z M 213.972656 288.527344 L 204.703125 288.339844 C 204.769531 289.726562 204.746094 291.277344 204.457031 292.496094 C 203.773438 295.367188 206.371094 298.832031 209.660156 304.300781 C 212.539062 309.082031 218.09375 309.878906 220.679688 307.941406 L 220.890625 304.617188 C 219.738281 302.25 217.511719 298.496094 215.960938 294.796875 C 215.027344 292.558594 214.390625 290.316406 213.972656 288.527344 Z M 227.769531 159.839844 C 227.136719 159.898438 226.566406 160.039062 226.039062 160.234375 C 223.605469 161.132812 222.046875 163.175781 219.40625 163.703125 C 218.105469 164.027344 216.402344 163.941406 214.699219 163.777344 L 214.691406 164.433594 C 214.6875 164.433594 214.675781 164.433594 214.65625 164.433594 C 214.386719 169.257812 213.761719 175.710938 213.761719 175.730469 L 220.867188 171.992188 L 220.867188 170.0625 L 221.464844 170.0625 C 221.003906 169.589844 220.710938 168.925781 220.710938 168.25 C 220.710938 166.984375 221.738281 165.75 223.003906 165.75 L 231.140625 165.75 C 230.300781 165.375 229.355469 165.132812 228.347656 165.035156 L 228.410156 164.378906 C 229.941406 164.527344 231.34375 165 232.507812 165.75 L 233.703125 165.75 L 233.980469 164.335938 C 232.722656 163.230469 230.96875 162.503906 229.539062 162.429688 L 229.574219 161.773438 C 231.019531 161.847656 232.769531 162.542969 234.121094 163.613281 L 234.46875 161.851562 C 234.230469 161.695312 233.984375 161.542969 233.734375 161.398438 C 233.296875 161.148438 232.839844 160.921875 232.378906 160.722656 C 231.128906 160.1875 229.832031 159.863281 228.625 159.824219 C 228.335938 159.8125 228.046875 159.816406 227.769531 159.839844 Z M 202.835938 108 C 202.664062 107.859375 202.488281 107.710938 202.308594 107.546875 C 200.53125 105.941406 198.703125 103.53125 200.269531 101.441406 C 201.558594 99.671875 204.292969 100.15625 205.578125 101.601562 C 205.578125 101.601562 212.097656 99.960938 214.167969 94.734375 C 214.167969 94.734375 213.296875 100.273438 214.707031 100.804688 C 215.785156 101.214844 224.132812 101.683594 228.742188 101.488281 C 228.742188 101.574219 228.738281 101.660156 228.738281 101.746094 C 228.738281 102.371094 228.71875 102.984375 228.691406 103.589844 C 228.660156 103.5625 228.628906 103.535156 228.589844 103.507812 C 228.054688 103.15625 228.515625 104.667969 228.632812 104.574219 C 228.390625 107.8125 227.703125 110.84375 226.328125 113.972656 C 223.320312 120.761719 216.808594 121.527344 210.910156 118.816406 C 211.5 119.445312 212.117188 120.046875 212.78125 120.621094 C 214.636719 122.226562 216.832031 122.578125 219.085938 122.898438 C 219.121094 124.707031 219.253906 126.886719 217.894531 128.109375 C 214.589844 131.585938 209.375 126.023438 207.808594 123.242188 C 206.90625 121.523438 205.652344 117.390625 205.652344 117.386719 C 205.652344 117.386719 205.425781 115.847656 205.425781 115.085938 C 205.425781 115.085938 205.429688 115.085938 205.429688 115.085938 C 205.429688 115.085938 202.402344 111.570312 202.835938 108 Z M 240.796875 257.980469 C 240.484375 257.605469 240.171875 257.226562 239.863281 256.851562 C 239.585938 256.511719 239.308594 256.175781 239.046875 255.851562 C 238.796875 255.539062 238.554688 255.242188 238.332031 254.960938 C 238.324219 254.957031 238.320312 254.949219 238.316406 254.945312 C 237.386719 253.789062 236.730469 252.953125 236.730469 252.953125 C 236.730469 252.953125 229.941406 250.53125 225.472656 248.269531 L 224.988281 255.851562 L 225 255.851562 L 224.9375 256.773438 C 224.9375 256.773438 225.003906 256.800781 225.117188 256.851562 C 225.710938 257.105469 227.738281 257.96875 230.09375 258.945312 C 231.601562 259.585938 232.964844 260.160156 234.15625 260.652344 C 234.515625 260.800781 234.863281 260.941406 235.191406 261.074219 C 237.226562 261.894531 238.664062 262.402344 239.378906 262.457031 C 239.382812 262.457031 239.390625 262.460938 239.390625 262.460938 C 239.9375 262.496094 240.515625 262.375 240.992188 262.109375 C 241.46875 261.84375 241.84375 261.433594 241.976562 260.902344 C 242.246094 259.84375 241.5 258.820312 240.796875 257.980469 Z M 240.796875 257.980469 " fill-opacity="1" fill-rule="nonzero"/><g clip-path="url(#dab296c8db)"><path fill="#4b548b" d="M 229.34375 124.5625 C 226.585938 121.988281 223.300781 120.269531 219.269531 120.285156 C 219.203125 120.695312 219.140625 121.101562 219.109375 121.5 C 219.074219 121.917969 219.078125 122.394531 219.085938 122.898438 C 216.832031 122.578125 214.636719 122.226562 212.78125 120.621094 C 212.117188 120.046875 211.5 119.445312 210.914062 118.816406 C 216.808594 121.527344 223.320312 120.761719 226.328125 113.972656 C 227.703125 110.84375 228.390625 107.8125 228.632812 104.574219 C 228.515625 104.664062 228.375 104.714844 228.230469 104.714844 C 228.105469 104.714844 227.980469 104.683594 227.871094 104.609375 C 227.578125 104.417969 227.332031 104.371094 226.890625 104.296875 C 226.53125 104.238281 226.292969 103.898438 226.351562 103.539062 C 226.40625 103.183594 226.746094 102.933594 227.105469 103 C 227.570312 103.074219 228.054688 103.15625 228.589844 103.507812 C 228.628906 103.535156 228.664062 103.5625 228.691406 103.589844 C 228.722656 102.984375 228.738281 102.371094 228.738281 101.746094 C 228.738281 101.660156 228.742188 101.574219 228.746094 101.488281 C 224.132812 101.683594 215.785156 101.214844 214.707031 100.804688 C 213.300781 100.273438 214.167969 94.734375 214.167969 94.734375 C 212.097656 99.960938 205.582031 101.601562 205.582031 101.601562 L 205.578125 101.601562 C 204.292969 100.15625 201.558594 99.671875 200.269531 101.441406 C 198.703125 103.53125 200.53125 105.941406 202.308594 107.546875 C 202.488281 107.707031 202.664062 107.855469 202.835938 108 C 202.402344 111.570312 205.429688 115.085938 205.429688 115.085938 C 205.425781 115.847656 205.652344 117.386719 205.652344 117.386719 C 205.613281 117.402344 198.347656 120.128906 194.3125 122.074219 C 194.089844 113.582031 193.902344 101.75 194.453125 98.390625 C 194.503906 98.09375 194.652344 96.714844 194.65625 96.542969 C 194.90625 87.246094 201.445312 81.046875 212.988281 79.875 C 215.53125 79.613281 222.242188 80.261719 224.453125 81.550781 C 235.125 87.792969 233.339844 100.234375 231.609375 101.105469 C 231.414062 101.203125 231.066406 101.28125 230.609375 101.339844 Z M 230.746094 212.960938 L 231.796875 227.648438 C 232.105469 227.195312 232.40625 226.753906 232.703125 226.324219 L 231.816406 213.914062 C 231.46875 213.605469 231.109375 213.285156 230.746094 212.960938 Z M 234.15625 260.652344 L 237.640625 309.339844 C 237.660156 309.601562 237.878906 309.804688 238.140625 309.804688 C 238.152344 309.804688 238.164062 309.800781 238.175781 309.800781 C 238.453125 309.78125 238.660156 309.542969 238.640625 309.265625 L 235.191406 261.074219 C 234.863281 260.941406 234.515625 260.804688 234.15625 260.652344 Z M 170.015625 309.265625 C 169.996094 309.542969 170.203125 309.78125 170.476562 309.800781 C 170.488281 309.800781 170.503906 309.804688 170.511719 309.804688 C 170.773438 309.804688 170.992188 309.601562 171.011719 309.339844 L 178.574219 203.664062 C 178.238281 203.617188 177.90625 203.554688 177.585938 203.480469 Z M 234.167969 155.125 C 233.890625 154.054688 233.921875 152.742188 233.671875 151.617188 C 233.28125 149.867188 232.867188 148.132812 232.449219 146.390625 C 231.980469 144.441406 231.410156 142.519531 230.824219 140.601562 C 230.332031 138.988281 229.128906 136.988281 229.195312 135.292969 C 229.316406 132.296875 224.671875 132.308594 224.554688 135.292969 C 224.492188 136.832031 225.042969 138.148438 225.601562 139.550781 C 226.4375 141.640625 227.003906 143.90625 227.589844 146.078125 C 228.128906 148.074219 228.648438 150.105469 229.054688 152.136719 C 229.328125 153.519531 229.34375 155.007812 229.691406 156.359375 C 230.027344 157.652344 232.316406 159.792969 232.378906 160.722656 C 232.84375 160.921875 233.296875 161.148438 233.738281 161.398438 C 233.660156 160.054688 234.433594 156.148438 234.167969 155.125 Z M 234.121094 163.613281 C 232.769531 162.542969 231.023438 161.847656 229.574219 161.773438 L 229.539062 162.429688 C 230.972656 162.503906 232.722656 163.230469 233.980469 164.335938 Z M 228.351562 165.035156 C 229.355469 165.128906 230.300781 165.375 231.140625 165.75 L 232.507812 165.75 C 231.34375 165 229.941406 164.527344 228.410156 164.378906 Z M 211.777344 160.789062 C 208.171875 160.789062 204.53125 160.738281 200.953125 161.226562 C 199.496094 161.425781 198.050781 161.578125 196.59375 161.707031 C 197.386719 159.171875 197.828125 156.492188 198.34375 153.921875 C 198.90625 151.113281 199.539062 148.316406 200.148438 145.519531 C 200.640625 143.269531 201.363281 141.089844 201.386719 138.761719 C 201.417969 135.765625 196.777344 135.769531 196.746094 138.761719 C 196.722656 140.929688 195.945312 143.03125 195.488281 145.136719 C 194.9375 147.648438 194.382812 150.164062 193.867188 152.683594 C 193.273438 155.601562 192.847656 158.65625 191.761719 161.429688 C 190.847656 160.523438 189.683594 159.960938 188.242188 160.160156 C 187.039062 160.324219 186.128906 161.417969 186.128906 162.640625 C 186.128906 164.269531 187.757812 165.402344 189.140625 165.894531 C 189.296875 166.277344 189.480469 166.648438 189.535156 166.835938 C 190.125 168.953125 192.613281 168.90625 193.777344 167.386719 C 193.976562 167.128906 194.164062 166.859375 194.34375 166.589844 C 196.191406 166.550781 198.058594 166.296875 199.789062 166.058594 C 203.78125 165.5 207.746094 165.433594 211.777344 165.433594 C 212.679688 165.433594 214.554688 164.433594 214.660156 164.433594 C 214.675781 164.433594 214.6875 164.433594 214.691406 164.433594 L 214.707031 163.121094 C 214.632812 163.121094 213.277344 160.789062 211.777344 160.789062 Z M 216.070312 113.964844 C 217.066406 115.765625 218.289062 116.519531 220.246094 116.519531 C 220.339844 116.519531 220.4375 116.519531 220.539062 116.515625 L 220.488281 115.199219 C 218.84375 115.269531 218.027344 114.785156 217.222656 113.328125 Z M 202.140625 102.109375 C 201.867188 102.902344 201.949219 103.851562 202.351562 104.585938 C 202.679688 105.175781 203.195312 105.582031 203.808594 105.726562 L 204.109375 104.445312 C 203.855469 104.382812 203.652344 104.21875 203.503906 103.949219 C 203.28125 103.546875 203.234375 102.976562 203.382812 102.535156 Z M 227.933594 107.226562 C 227.933594 106.644531 227.460938 106.175781 226.882812 106.175781 C 226.304688 106.175781 225.835938 106.648438 225.835938 107.226562 C 225.835938 107.808594 226.304688 108.277344 226.882812 108.277344 C 227.460938 108.277344 227.933594 107.808594 227.933594 107.226562 Z M 217.394531 107.226562 C 217.394531 107.808594 217.863281 108.277344 218.445312 108.277344 C 219.023438 108.277344 219.492188 107.808594 219.492188 107.226562 C 219.492188 106.644531 219.023438 106.175781 218.445312 106.175781 C 217.863281 106.179688 217.394531 106.648438 217.394531 107.226562 Z M 220.050781 103.785156 C 220.308594 103.785156 220.550781 103.628906 220.660156 103.378906 C 220.796875 103.039062 220.636719 102.65625 220.300781 102.515625 C 219.5625 102.210938 218.824219 102.195312 218.105469 102.179688 L 217.96875 102.179688 C 217.617188 102.160156 217.304688 102.460938 217.296875 102.824219 C 217.289062 103.1875 217.578125 103.488281 217.941406 103.496094 L 218.078125 103.496094 C 218.703125 103.511719 219.289062 103.519531 219.800781 103.730469 C 219.878906 103.765625 219.964844 103.785156 220.050781 103.785156 Z M 288.917969 195.785156 L 288.917969 195.125 L 288.996094 196.339844 C 289.332031 196.304688 289.667969 196.289062 289.996094 196.300781 L 288.519531 173.054688 L 296.925781 173.066406 L 296.925781 170.179688 L 281.089844 170.15625 L 221.464844 170.0625 L 220.867188 170.0625 L 220.867188 172.949219 L 234.121094 172.96875 L 288.167969 173.054688 L 287.519531 173.09375 L 288.898438 194.78125 L 228.875 194.78125 L 228.875 195.78125 L 288.917969 195.78125 Z M 292.570312 236.828125 L 292.113281 229.601562 C 291.800781 229.921875 291.488281 230.238281 291.167969 230.546875 L 291.570312 236.828125 Z M 290.136719 214.277344 L 290.664062 222.578125 C 291.019531 222.804688 291.367188 223.042969 291.710938 223.289062 L 290.664062 206.796875 C 290.441406 206.757812 290.21875 206.695312 289.992188 206.59375 C 289.855469 206.53125 289.738281 206.453125 289.632812 206.367188 L 290.097656 213.660156 C 290.128906 213.867188 290.140625 214.074219 290.136719 214.277344 Z M 291.882812 226.015625 L 291.792969 224.5625 C 291.449219 224.300781 291.097656 224.050781 290.742188 223.808594 L 290.890625 226.160156 C 291.214844 226.089844 291.546875 226.042969 291.882812 226.015625 Z M 294.414062 281.628906 L 296.171875 309.332031 L 297.171875 309.269531 L 295.242188 278.878906 C 294.964844 279.792969 294.6875 280.710938 294.414062 281.628906 Z M 290.246094 200.234375 C 289.921875 200.378906 289.597656 200.523438 289.269531 200.664062 L 289.457031 203.585938 C 289.464844 203.570312 289.472656 203.554688 289.484375 203.542969 C 289.734375 203.167969 290.050781 202.90625 290.40625 202.710938 Z M 287.246094 255.851562 L 239.046875 255.851562 C 239.308594 256.175781 239.585938 256.511719 239.863281 256.851562 L 287.648438 256.851562 C 287.503906 256.523438 287.371094 256.191406 287.246094 255.851562 Z M 230.246094 173.097656 L 229.246094 173.03125 L 229.054688 176.03125 L 226.925781 209.558594 L 225.125 237.90625 L 224.5 247.761719 L 223.953125 256.367188 L 220.890625 304.613281 L 220.679688 307.941406 L 220.59375 309.269531 L 221.59375 309.335938 L 224.925781 256.851562 L 225.117188 256.851562 C 225.003906 256.800781 224.9375 256.773438 224.9375 256.773438 L 225 255.847656 L 224.988281 255.847656 L 225.472656 248.269531 L 226.246094 236.085938 L 227.875 210.40625 L 230.058594 176.050781 Z M 324.90625 264.859375 L 293.636719 264.859375 C 293.636719 264.859375 293.527344 264.773438 293.332031 264.601562 L 293.347656 264.859375 L 283.4375 264.859375 C 281.644531 264.859375 280.191406 266.574219 280.191406 268.367188 C 280.191406 270.15625 281.644531 271.867188 283.4375 271.867188 L 293.792969 271.867188 L 294.195312 278.207031 C 294.472656 277.324219 294.746094 276.445312 295.03125 275.566406 L 294.796875 271.867188 L 324.902344 271.867188 C 326.695312 271.867188 328.148438 270.15625 328.148438 268.367188 C 328.148438 266.574219 326.695312 264.859375 324.90625 264.859375 Z M 143.808594 302.402344 L 143.808594 199.496094 C 155.714844 199.378906 166.003906 197.71875 171.484375 195.304688 C 174 194.195312 175.5 192.925781 175.675781 191.574219 C 175.6875 191.488281 175.703125 191.398438 175.703125 191.308594 C 175.703125 191.050781 175.648438 190.792969 175.550781 190.542969 C 173.980469 194.707031 159.761719 197.96875 142.445312 197.96875 C 125.128906 197.96875 110.910156 194.707031 109.335938 190.542969 C 109.242188 190.792969 109.1875 191.050781 109.1875 191.308594 C 109.1875 195.78125 123.734375 199.417969 141.808594 199.5 L 141.808594 302.414062 C 134.726562 302.589844 129.195312 304.058594 129.195312 305.851562 C 129.195312 307.757812 135.46875 309.304688 143.210938 309.304688 C 150.949219 309.304688 157.222656 307.757812 157.222656 305.851562 C 157.222656 303.992188 151.269531 302.480469 143.808594 302.402344 Z M 135.054688 160.398438 C 135.136719 160.398438 135.21875 160.40625 135.300781 160.414062 L 135.300781 158.757812 C 135.125 158.75 134.945312 158.742188 134.757812 158.742188 C 134.757812 158.742188 129.808594 158.867188 129.339844 158.847656 C 129.324219 158.847656 129.308594 158.851562 129.296875 158.851562 L 129.296875 160.53125 C 131.234375 160.210938 133.421875 160.355469 135.054688 160.398438 Z M 152.433594 151.949219 C 153.777344 151.949219 154.988281 151.621094 155.523438 151.160156 C 155.710938 151 155.816406 150.828125 155.816406 150.644531 L 155.816406 150.625 L 155.613281 147.964844 C 155.613281 147.964844 155.539062 147.761719 155.484375 147.664062 C 155.148438 147.097656 153.871094 146.675781 152.378906 146.675781 C 150.945312 146.675781 149.730469 147.160156 149.335938 147.726562 C 149.25 147.851562 149.203125 147.980469 149.203125 148.109375 C 149.203125 148.121094 149.195312 148.222656 149.1875 148.378906 C 149.148438 149.035156 149.050781 150.664062 149.050781 150.699219 C 149.050781 150.804688 149.089844 150.910156 149.160156 151.007812 C 149.535156 151.558594 150.894531 151.949219 152.433594 151.949219 Z M 148.574219 186.773438 L 155.671875 186.773438 C 157.394531 186.773438 158.820312 185.976562 158.820312 184.253906 L 158.820312 166.304688 C 158.820312 165.480469 155.796875 164.535156 152.285156 164.535156 C 148.769531 164.535156 145.867188 165.75 145.863281 165.75 L 145.808594 165.75 L 145.808594 184.253906 C 145.808594 185.976562 146.847656 186.773438 148.574219 186.773438 Z M 278.121094 126.023438 C 280.347656 123.796875 281.152344 120.359375 279.996094 117.628906 L 280.613281 117.011719 C 281.0625 116.5625 281.359375 115.988281 281.476562 115.386719 C 281.632812 114.578125 281.460938 113.734375 280.886719 113.109375 C 280.867188 113.085938 280.847656 113.0625 280.824219 113.042969 L 280.765625 112.980469 C 279.6875 111.90625 277.730469 111.976562 276.65625 113.050781 L 275.832031 113.875 C 273.117188 112.980469 269.835938 113.625 267.78125 115.679688 L 264.375 119.082031 L 274.71875 129.429688 Z M 278.121094 126.023438 " fill-opacity="1" fill-rule="nonzero"/></g><g clip-path="url(#355a5870fe)"><path fill="#ffffff" d="M 227.886719 136.433594 L 226.699219 136.996094 C 226.753906 137.109375 231.453125 147.226562 232.378906 160.722656 C 231.128906 160.1875 229.832031 159.863281 228.625 159.824219 L 222.308594 152.964844 C 221.898438 152.519531 221.210938 152.492188 220.765625 152.902344 C 220.324219 153.308594 220.292969 154.003906 220.703125 154.445312 L 226.039062 160.234375 C 223.605469 161.132812 222.046875 163.175781 219.40625 163.703125 C 218.105469 164.027344 216.402344 163.941406 214.699219 163.777344 L 214.703125 163.121094 C 214.085938 163.113281 202.261719 163.007812 194.660156 163.277344 C 195.226562 161.566406 196.003906 157.300781 197.871094 146.707031 C 198.394531 143.734375 198.742188 141.167969 199.042969 139.71875 L 197.699219 139.453125 C 197.398438 140.917969 196.914062 143.496094 196.390625 146.480469 C 195.605469 150.917969 194.539062 157.605469 193.761719 161.070312 C 193.503906 162.222656 193.277344 163.105469 193.101562 163.34375 C 193.101562 163.34375 193.105469 163.34375 193.105469 163.34375 C 191.925781 163.398438 190.894531 163.464844 190.101562 163.546875 L 190.238281 164.855469 C 195.828125 164.277344 213.777344 164.425781 214.65625 164.433594 C 214.386719 169.257812 213.761719 175.710938 213.761719 175.730469 L 220.867188 171.992188 L 220.867188 172.949219 L 234.121094 172.972656 C 234.0625 174.832031 234.011719 176.132812 234.011719 176.132812 L 233.933594 176.128906 L 230.058594 176.054688 L 230.246094 173.097656 L 229.246094 173.035156 L 229.054688 176.03125 L 213.761719 175.730469 C 213.761719 175.730469 198.6875 179.371094 185.167969 177.058594 C 185.167969 177.058594 185.164062 177.058594 185.164062 177.058594 C 171.648438 174.746094 176.011719 162.792969 177.039062 155.441406 C 178.402344 146.734375 178.304688 142.804688 182.058594 133.375 C 183.933594 128.664062 188.289062 125.457031 192.726562 122.894531 C 193.15625 122.648438 193.695312 122.371094 194.3125 122.074219 C 198.347656 120.128906 205.613281 117.402344 205.652344 117.386719 C 205.652344 117.390625 206.90625 121.519531 207.808594 123.242188 C 209.375 126.019531 214.589844 131.585938 217.894531 128.109375 C 219.253906 126.886719 219.121094 124.703125 219.085938 122.894531 C 219.074219 122.390625 219.074219 121.917969 219.109375 121.5 C 219.140625 121.101562 219.203125 120.695312 219.269531 120.285156 C 223.296875 120.269531 226.585938 121.988281 229.34375 124.5625 C 232.996094 127.96875 235.726562 132.863281 238.011719 137.195312 C 238.339844 137.820312 238.640625 138.453125 238.929688 139.089844 L 234.46875 161.851562 C 234.230469 161.691406 233.984375 161.542969 233.738281 161.398438 C 232.921875 147.257812 227.945312 136.550781 227.886719 136.433594 Z M 159.820312 182.785156 L 159.820312 185.152344 C 159.820312 187.355469 158.09375 188.773438 155.890625 188.773438 L 148.847656 188.773438 C 146.640625 188.773438 144.808594 187.355469 144.808594 185.152344 L 144.808594 181.601562 C 144.027344 181.585938 143.242188 181.578125 142.445312 181.578125 C 141.554688 181.578125 140.675781 181.589844 139.804688 181.605469 L 139.804688 185.828125 C 139.804688 189.078125 138.015625 189.4375 135.328125 189.421875 C 133.503906 189.414062 131.574219 189.386719 130.121094 189.386719 C 127.507812 189.386719 125.03125 188.285156 125.03125 185.671875 L 124.792969 185.773438 L 124.792969 182.828125 C 115.421875 184.277344 109.1875 186.84375 109.1875 189.773438 C 109.1875 190.035156 109.242188 190.289062 109.335938 190.542969 C 110.910156 194.707031 125.128906 197.96875 142.445312 197.96875 C 159.761719 197.96875 173.980469 194.707031 175.550781 190.542969 C 175.648438 190.289062 175.703125 190.035156 175.703125 189.773438 C 175.703125 186.816406 169.347656 184.226562 159.820312 182.785156 Z M 159.820312 182.785156 " fill-opacity="1" fill-rule="nonzero"/></g><path fill="#4b548b" d="M 294.925781 167.75 L 294.925781 126.433594 C 294.925781 120.316406 288.007812 114.5625 284.863281 114.550781 C 284.476562 114.546875 284.113281 114.535156 283.777344 114.519531 C 283.65625 115.019531 283.207031 115.390625 282.667969 115.390625 L 281.476562 115.386719 C 281.636719 114.578125 281.464844 113.734375 280.886719 113.109375 L 282.675781 113.113281 C 283.015625 113.113281 283.316406 113.265625 283.523438 113.503906 C 283.925781 113.527344 284.378906 113.546875 284.867188 113.546875 C 288.417969 113.5625 295.925781 119.667969 295.925781 126.433594 L 295.925781 169.753906 L 281.476562 169.753906 C 281.90625 169.222656 282.234375 168.519531 282.382812 167.75 Z M 212.867188 195.898438 C 213.191406 198.523438 213.371094 201.164062 213.855469 203.792969 L 220.488281 203.792969 C 218.652344 202.136719 217.160156 200.78125 216.351562 200.023438 C 214.980469 198.734375 213.835938 197.34375 212.867188 195.898438 Z M 181.457031 190.777344 L 179.980469 190.777344 C 178.414062 190.777344 176.945312 191.066406 175.675781 191.574219 C 175.5 192.925781 174 194.195312 171.484375 195.304688 C 171.21875 195.929688 171.078125 196.597656 171.097656 197.285156 C 171.179688 200.152344 173.902344 202.636719 177.585938 203.480469 C 177.90625 203.554688 178.238281 203.617188 178.574219 203.664062 C 179.148438 203.746094 179.738281 203.792969 180.34375 203.792969 L 182.933594 203.792969 C 182.164062 201.628906 181.582031 199.417969 181.378906 197.246094 C 181.171875 195.027344 181.222656 192.882812 181.457031 190.777344 Z M 220.765625 152.902344 C 220.324219 153.308594 220.296875 154.003906 220.703125 154.445312 L 226.039062 160.234375 C 226.566406 160.039062 227.136719 159.898438 227.769531 159.839844 C 228.046875 159.816406 228.335938 159.8125 228.628906 159.824219 L 222.308594 152.964844 C 221.902344 152.519531 221.210938 152.492188 220.765625 152.902344 Z M 313.898438 236.828125 L 286.074219 236.828125 C 286.074219 236.828125 286.171875 244.3125 286.296875 250.84375 C 286.328125 252.644531 286.695312 254.324219 287.246094 255.851562 C 287.371094 256.191406 287.507812 256.523438 287.648438 256.851562 C 289.410156 260.933594 292.378906 263.761719 293.332031 264.601562 C 293.527344 264.773438 293.636719 264.859375 293.636719 264.859375 L 314.414062 264.859375 C 314.414062 264.859375 321.605469 259.113281 321.753906 250.84375 C 321.875 244.3125 321.976562 236.828125 321.976562 236.828125 Z M 135.300781 160.414062 C 135.21875 160.40625 135.136719 160.398438 135.054688 160.398438 C 133.421875 160.355469 131.234375 160.210938 129.296875 160.53125 C 126.84375 160.933594 124.792969 162.085938 124.792969 165.136719 L 124.792969 185.769531 L 125.03125 185.667969 C 125.03125 188.285156 127.511719 189.386719 130.125 189.386719 C 131.578125 189.386719 133.503906 189.414062 135.328125 189.421875 C 138.015625 189.4375 139.804688 189.078125 139.804688 185.828125 L 139.804688 165.136719 C 139.804688 162.605469 137.800781 160.542969 135.300781 160.414062 Z M 129.296875 158.851562 C 129.308594 158.851562 129.324219 158.851562 129.339844 158.851562 C 129.808594 158.867188 134.757812 158.742188 134.757812 158.742188 C 134.945312 158.742188 135.125 158.75 135.300781 158.761719 C 136.449219 158.828125 137.304688 158.996094 137.304688 157.769531 L 137.304688 156.003906 C 137.304688 154.589844 136.171875 152.734375 134.757812 152.734375 L 129.972656 152.734375 C 128.558594 152.734375 127.296875 154.589844 127.296875 156.003906 L 127.296875 157.941406 C 127.296875 158.957031 128.253906 158.875 129.296875 158.851562 Z M 129.296875 158.851562 " fill-opacity="1" fill-rule="nonzero"/><g fill="#4be4ff" fill-opacity="1"><g transform="translate(131.367149, 333.007953)"><g><path d="M 2.113281 0 L 6.109375 0 L 6.109375 -17.601562 L 2.113281 -17.601562 Z M 2.113281 0 "/></g></g></g><g fill="#4be4ff" fill-opacity="1"><g transform="translate(139.586867, 333.007953)"><g><path d="M 8.273438 0 L 10.6875 0 L 10.6875 -3.320312 L 9.101562 -3.320312 C 7.59375 -3.320312 6.890625 -4.046875 6.890625 -5.582031 L 6.890625 -10.085938 L 10.511719 -10.085938 L 10.511719 -13.203125 L 6.890625 -13.203125 L 6.890625 -16.621094 L 3.921875 -16.621094 L 3.695312 -14.914062 C 3.496094 -13.554688 3.117188 -13.203125 1.683594 -13.203125 L 0.503906 -13.203125 L 0.503906 -10.085938 L 3.066406 -10.085938 L 3.066406 -5.003906 C 3.066406 -1.785156 4.929688 0 8.273438 0 Z M 8.273438 0 "/></g></g></g><g fill="#4be4ff" fill-opacity="1"><g transform="translate(151.325734, 333.007953)"><g><path d="M 6.992188 0.351562 C 10.5625 0.351562 12.726562 -1.207031 12.726562 -3.722656 C 12.726562 -5.882812 11.113281 -7.269531 7.847656 -7.921875 C 5.582031 -8.375 4.878906 -8.75 4.878906 -9.554688 C 4.878906 -10.335938 5.582031 -10.789062 6.714844 -10.789062 C 7.996094 -10.789062 8.777344 -10.210938 8.851562 -9.203125 L 12.5 -9.203125 C 12.324219 -11.996094 10.261719 -13.554688 6.738281 -13.554688 C 3.195312 -13.554688 1.183594 -12.121094 1.183594 -9.554688 C 1.183594 -7.367188 2.691406 -6.0625 6.0625 -5.457031 C 8.097656 -5.105469 8.953125 -4.578125 8.953125 -3.746094 C 8.953125 -2.96875 8.25 -2.488281 7.042969 -2.488281 C 5.632812 -2.488281 4.777344 -3.167969 4.753906 -4.25 L 1.007812 -4.25 C 1.007812 -1.484375 3.371094 0.351562 6.992188 0.351562 Z M 6.992188 0.351562 "/></g></g></g><g fill="#4be4ff" fill-opacity="1"><g transform="translate(165.075546, 333.007953)"><g/></g></g><g fill="#4be4ff" fill-opacity="1"><g transform="translate(170.982688, 333.007953)"><g><path d="M 6.3125 0.25 C 8.273438 0.25 9.882812 -0.378906 11.015625 -1.535156 L 11.441406 0 L 14.285156 0 L 14.285156 -7.945312 C 14.285156 -11.441406 11.917969 -13.554688 7.972656 -13.554688 C 4.601562 -13.554688 2.390625 -11.945312 1.910156 -9.078125 L 5.582031 -9.078125 C 5.808594 -10.007812 6.765625 -10.636719 7.996094 -10.636719 C 9.503906 -10.636719 10.535156 -9.78125 10.535156 -8.476562 L 10.535156 -7.871094 L 5.757812 -7.871094 C 3.019531 -7.871094 1.257812 -6.285156 1.257812 -3.847656 C 1.257812 -1.308594 3.195312 0.25 6.3125 0.25 Z M 5.03125 -4 C 5.03125 -4.902344 5.785156 -5.480469 6.941406 -5.480469 L 10.5625 -5.480469 C 10.488281 -3.695312 9.101562 -2.488281 7.191406 -2.488281 C 5.882812 -2.488281 5.03125 -3.09375 5.03125 -4 Z M 5.03125 -4 "/></g></g></g><g fill="#4be4ff" fill-opacity="1"><g transform="translate(186.919397, 333.007953)"><g/></g></g><g fill="#4be4ff" fill-opacity="1"><g transform="translate(192.826539, 333.007953)"><g><path d="M 5.910156 0 L 9.859375 0 L 13.855469 -11.390625 L 17.855469 0 L 21.777344 0 L 27.460938 -17.601562 L 23.234375 -17.601562 L 21.550781 -12.246094 L 19.664062 -6.386719 L 17.628906 -12.246094 L 15.742188 -17.601562 L 11.945312 -17.601562 L 10.058594 -12.246094 L 8.046875 -6.464844 L 6.1875 -12.246094 L 4.5 -17.601562 L 0.25 -17.601562 Z M 5.910156 0 "/></g></g></g><g fill="#4be4ff" fill-opacity="1"><g transform="translate(220.527258, 333.007953)"><g><path d="M 8.398438 0.351562 C 12.773438 0.351562 15.792969 -2.488281 15.792969 -6.613281 C 15.792969 -10.710938 12.773438 -13.554688 8.398438 -13.554688 C 4 -13.554688 0.980469 -10.710938 0.980469 -6.613281 C 0.980469 -2.488281 4 0.351562 8.398438 0.351562 Z M 4.753906 -6.613281 C 4.753906 -8.777344 6.261719 -10.285156 8.398438 -10.285156 C 10.535156 -10.285156 12.019531 -8.777344 12.019531 -6.613281 C 12.019531 -4.449219 10.535156 -2.941406 8.398438 -2.941406 C 6.261719 -2.941406 4.753906 -4.449219 4.753906 -6.613281 Z M 4.753906 -6.613281 "/></g></g></g><g fill="#4be4ff" fill-opacity="1"><g transform="translate(237.29348, 333.007953)"><g><path d="M 1.910156 0 L 5.734375 0 L 5.734375 -5.835938 C 5.734375 -8.675781 7.066406 -9.730469 9.253906 -9.730469 L 10.710938 -9.730469 L 10.710938 -13.203125 L 9.28125 -13.203125 C 7.34375 -13.203125 6.109375 -12.675781 5.253906 -11.441406 L 4.753906 -13.203125 L 1.910156 -13.203125 Z M 1.910156 0 "/></g></g></g><g fill="#4be4ff" fill-opacity="1"><g transform="translate(248.856395, 333.007953)"><g><path d="M 1.910156 0 L 5.734375 0 L 5.734375 -5.03125 L 7.796875 -5.03125 L 10.710938 0 L 15.164062 0 L 11.367188 -6.3125 C 12.070312 -6.941406 12.625 -7.820312 13.050781 -9.003906 L 14.585938 -13.203125 L 10.460938 -13.203125 L 9.53125 -10.335938 C 9.027344 -8.851562 8.324219 -8.449219 6.714844 -8.449219 L 5.734375 -8.449219 L 5.734375 -18.609375 L 1.910156 -18.609375 Z M 1.910156 0 "/></g></g></g><g fill="#4be4ff" fill-opacity="1"><g transform="translate(264.667425, 333.007953)"><g/></g></g><g fill="#4be4ff" fill-opacity="1"><g transform="translate(270.574567, 333.007953)"><g><path d="M 1.910156 0 L 5.734375 0 L 5.734375 -13.203125 L 1.910156 -13.203125 Z M 1.359375 -17.476562 C 1.359375 -16.070312 2.363281 -15.089844 3.824219 -15.089844 C 5.28125 -15.089844 6.285156 -16.070312 6.285156 -17.476562 C 6.285156 -18.886719 5.28125 -19.867188 3.824219 -19.867188 C 2.363281 -19.867188 1.359375 -18.886719 1.359375 -17.476562 Z M 1.359375 -17.476562 "/></g></g></g><g fill="#4be4ff" fill-opacity="1"><g transform="translate(278.216141, 333.007953)"><g><path d="M 1.910156 0 L 5.734375 0 L 5.734375 -6.914062 C 5.734375 -9.003906 6.890625 -10.285156 8.652344 -10.285156 C 10.285156 -10.285156 11.265625 -9.128906 11.265625 -7.191406 L 11.265625 0 L 15.089844 0 L 15.089844 -7.59375 C 15.089844 -11.242188 13 -13.554688 9.554688 -13.554688 C 7.796875 -13.554688 6.210938 -12.949219 5.15625 -11.71875 L 4.753906 -13.203125 L 1.910156 -13.203125 Z M 1.910156 0 "/></g></g></g><g fill="#4be4ff" fill-opacity="1"><g transform="translate(154.359334, 367.50795)"><g><path d="M 2.113281 0 L 6.109375 0 L 6.109375 -4.902344 L 9.003906 -4.902344 C 13.253906 -4.902344 15.992188 -7.394531 15.992188 -11.242188 C 15.992188 -15.113281 13.253906 -17.601562 9.003906 -17.601562 L 2.113281 -17.601562 Z M 6.085938 -8.347656 L 6.085938 -14.109375 L 8.675781 -14.109375 C 10.761719 -14.109375 11.917969 -13.050781 11.917969 -11.214844 C 11.917969 -9.378906 10.761719 -8.347656 8.675781 -8.347656 Z M 6.085938 -8.347656 "/></g></g></g><g fill="#4be4ff" fill-opacity="1"><g transform="translate(171.075282, 367.50795)"><g><path d="M 1.910156 0 L 5.734375 0 L 5.734375 -5.835938 C 5.734375 -8.675781 7.066406 -9.730469 9.253906 -9.730469 L 10.710938 -9.730469 L 10.710938 -13.203125 L 9.28125 -13.203125 C 7.34375 -13.203125 6.109375 -12.675781 5.253906 -11.441406 L 4.753906 -13.203125 L 1.910156 -13.203125 Z M 1.910156 0 "/></g></g></g><g fill="#4be4ff" fill-opacity="1"><g transform="translate(182.638197, 367.50795)"><g><path d="M 8.398438 0.351562 C 12.773438 0.351562 15.792969 -2.488281 15.792969 -6.613281 C 15.792969 -10.710938 12.773438 -13.554688 8.398438 -13.554688 C 4 -13.554688 0.980469 -10.710938 0.980469 -6.613281 C 0.980469 -2.488281 4 0.351562 8.398438 0.351562 Z M 4.753906 -6.613281 C 4.753906 -8.777344 6.261719 -10.285156 8.398438 -10.285156 C 10.535156 -10.285156 12.019531 -8.777344 12.019531 -6.613281 C 12.019531 -4.449219 10.535156 -2.941406 8.398438 -2.941406 C 6.261719 -2.941406 4.753906 -4.449219 4.753906 -6.613281 Z M 4.753906 -6.613281 "/></g></g></g><g fill="#4be4ff" fill-opacity="1"><g transform="translate(199.404419, 367.50795)"><g><path d="M 8.347656 5.582031 C 12.574219 5.582031 15.265625 3.21875 15.265625 -0.730469 L 15.265625 -13.203125 L 12.421875 -13.203125 L 12.019531 -11.742188 C 10.863281 -12.902344 9.253906 -13.554688 7.367188 -13.554688 C 3.644531 -13.554688 0.980469 -10.8125 0.980469 -6.964844 C 0.980469 -3.09375 3.644531 -0.351562 7.367188 -0.351562 C 8.953125 -0.351562 10.359375 -0.828125 11.441406 -1.660156 L 11.441406 -0.730469 C 11.441406 1.410156 10.359375 2.488281 8.273438 2.488281 C 6.6875 2.488281 5.632812 1.835938 5.355469 0.679688 L 1.632812 0.679688 C 1.960938 3.722656 4.527344 5.582031 8.347656 5.582031 Z M 4.753906 -6.964844 C 4.753906 -8.976562 6.160156 -10.386719 8.171875 -10.386719 C 10.183594 -10.386719 11.617188 -8.976562 11.617188 -6.964844 C 11.617188 -4.929688 10.183594 -3.519531 8.171875 -3.519531 C 6.160156 -3.519531 4.753906 -4.929688 4.753906 -6.964844 Z M 4.753906 -6.964844 "/></g></g></g><g fill="#4be4ff" fill-opacity="1"><g transform="translate(216.597963, 367.50795)"><g><path d="M 1.910156 0 L 5.734375 0 L 5.734375 -5.835938 C 5.734375 -8.675781 7.066406 -9.730469 9.253906 -9.730469 L 10.710938 -9.730469 L 10.710938 -13.203125 L 9.28125 -13.203125 C 7.34375 -13.203125 6.109375 -12.675781 5.253906 -11.441406 L 4.753906 -13.203125 L 1.910156 -13.203125 Z M 1.910156 0 "/></g></g></g><g fill="#4be4ff" fill-opacity="1"><g transform="translate(228.160878, 367.50795)"><g><path d="M 8.148438 0.351562 C 11.390625 0.351562 13.957031 -1.308594 15.113281 -4.097656 L 11.242188 -4.097656 C 10.613281 -3.21875 9.480469 -2.714844 8.222656 -2.714844 C 6.488281 -2.714844 5.128906 -3.695312 4.777344 -5.507812 L 15.363281 -5.507812 C 15.589844 -10.335938 12.726562 -13.554688 8.199219 -13.554688 C 3.921875 -13.554688 0.980469 -10.710938 0.980469 -6.613281 C 0.980469 -2.488281 3.898438 0.351562 8.148438 0.351562 Z M 4.804688 -7.921875 C 5.230469 -9.53125 6.539062 -10.511719 8.222656 -10.511719 C 9.984375 -10.511719 11.242188 -9.53125 11.667969 -7.921875 Z M 4.804688 -7.921875 "/></g></g></g><g fill="#4be4ff" fill-opacity="1"><g transform="translate(244.474635, 367.50795)"><g><path d="M 6.992188 0.351562 C 10.5625 0.351562 12.726562 -1.207031 12.726562 -3.722656 C 12.726562 -5.882812 11.113281 -7.269531 7.847656 -7.921875 C 5.582031 -8.375 4.878906 -8.75 4.878906 -9.554688 C 4.878906 -10.335938 5.582031 -10.789062 6.714844 -10.789062 C 7.996094 -10.789062 8.777344 -10.210938 8.851562 -9.203125 L 12.5 -9.203125 C 12.324219 -11.996094 10.261719 -13.554688 6.738281 -13.554688 C 3.195312 -13.554688 1.183594 -12.121094 1.183594 -9.554688 C 1.183594 -7.367188 2.691406 -6.0625 6.0625 -5.457031 C 8.097656 -5.105469 8.953125 -4.578125 8.953125 -3.746094 C 8.953125 -2.96875 8.25 -2.488281 7.042969 -2.488281 C 5.632812 -2.488281 4.777344 -3.167969 4.753906 -4.25 L 1.007812 -4.25 C 1.007812 -1.484375 3.371094 0.351562 6.992188 0.351562 Z M 6.992188 0.351562 "/></g></g></g><g fill="#4be4ff" fill-opacity="1"><g transform="translate(258.224446, 367.50795)"><g><path d="M 6.992188 0.351562 C 10.5625 0.351562 12.726562 -1.207031 12.726562 -3.722656 C 12.726562 -5.882812 11.113281 -7.269531 7.847656 -7.921875 C 5.582031 -8.375 4.878906 -8.75 4.878906 -9.554688 C 4.878906 -10.335938 5.582031 -10.789062 6.714844 -10.789062 C 7.996094 -10.789062 8.777344 -10.210938 8.851562 -9.203125 L 12.5 -9.203125 C 12.324219 -11.996094 10.261719 -13.554688 6.738281 -13.554688 C 3.195312 -13.554688 1.183594 -12.121094 1.183594 -9.554688 C 1.183594 -7.367188 2.691406 -6.0625 6.0625 -5.457031 C 8.097656 -5.105469 8.953125 -4.578125 8.953125 -3.746094 C 8.953125 -2.96875 8.25 -2.488281 7.042969 -2.488281 C 5.632812 -2.488281 4.777344 -3.167969 4.753906 -4.25 L 1.007812 -4.25 C 1.007812 -1.484375 3.371094 0.351562 6.992188 0.351562 Z M 6.992188 0.351562 "/></g></g></g></svg>