<svg xmlns="http://www.w3.org/2000/svg" xmlnsXlink="http://www.w3.org/1999/xlink" width="500" zoomAndPan="magnify" viewBox="0 0 425.25 422.250001" height="500" preserveAspectRatio="xMidYMid meet" version="1.0"><defs><clipPath id="18ce8023ba"><path d="M 113.816406 102.078125 L 315.957031 102.078125 L 315.957031 304.21875 L 113.816406 304.21875 Z M 113.816406 102.078125 " clip-rule="nonzero"/></clipPath><clipPath id="c01c0cca75"><path d="M 37.90625 37.6875 L 386 37.6875 L 386 383.574219 L 37.90625 383.574219 Z M 37.90625 37.6875 " clip-rule="nonzero"/></clipPath></defs><g clip-path="url(#18ce8023ba)"><path fill="#2c2a4a" d="M 315.957031 203.148438 C 315.957031 204.800781 315.917969 206.453125 315.835938 208.105469 C 315.753906 209.757812 315.632812 211.40625 315.46875 213.054688 C 315.308594 214.699219 315.105469 216.339844 314.863281 217.976562 C 314.621094 219.613281 314.335938 221.242188 314.015625 222.867188 C 313.691406 224.488281 313.328125 226.101562 312.929688 227.707031 C 312.527344 229.308594 312.085938 230.902344 311.605469 232.488281 C 311.125 234.070312 310.605469 235.640625 310.050781 237.199219 C 309.492188 238.753906 308.898438 240.296875 308.261719 241.824219 C 307.628906 243.355469 306.960938 244.867188 306.253906 246.359375 C 305.546875 247.855469 304.800781 249.332031 304.023438 250.792969 C 303.242188 252.25 302.429688 253.691406 301.578125 255.109375 C 300.726562 256.527344 299.84375 257.925781 298.921875 259.300781 C 298.003906 260.675781 297.050781 262.027344 296.066406 263.355469 C 295.082031 264.683594 294.066406 265.988281 293.015625 267.265625 C 291.964844 268.542969 290.886719 269.796875 289.773438 271.023438 C 288.664062 272.25 287.523438 273.445312 286.355469 274.617188 C 285.183594 275.785156 283.988281 276.925781 282.761719 278.035156 C 281.535156 279.148438 280.285156 280.226562 279.003906 281.277344 C 277.726562 282.324219 276.421875 283.34375 275.09375 284.328125 C 273.765625 285.3125 272.414062 286.265625 271.039062 287.183594 C 269.664062 288.105469 268.265625 288.988281 266.847656 289.839844 C 265.429688 290.6875 263.988281 291.503906 262.53125 292.285156 C 261.070312 293.0625 259.59375 293.808594 258.101562 294.515625 C 256.605469 295.222656 255.09375 295.890625 253.566406 296.523438 C 252.035156 297.15625 250.492188 297.753906 248.9375 298.308594 C 247.378906 298.867188 245.808594 299.386719 244.226562 299.867188 C 242.644531 300.347656 241.050781 300.789062 239.445312 301.1875 C 237.839844 301.589844 236.226562 301.953125 234.605469 302.277344 C 232.980469 302.597656 231.351562 302.882812 229.714844 303.125 C 228.082031 303.367188 226.4375 303.570312 224.792969 303.730469 C 223.148438 303.894531 221.496094 304.015625 219.847656 304.097656 C 218.195312 304.175781 216.539062 304.21875 214.886719 304.21875 C 213.234375 304.21875 211.578125 304.175781 209.925781 304.097656 C 208.273438 304.015625 206.625 303.894531 204.980469 303.730469 C 203.332031 303.570312 201.691406 303.367188 200.054688 303.125 C 198.421875 302.882812 196.792969 302.597656 195.167969 302.277344 C 193.546875 301.953125 191.933594 301.589844 190.328125 301.1875 C 188.722656 300.789062 187.128906 300.347656 185.546875 299.867188 C 183.964844 299.386719 182.394531 298.867188 180.835938 298.308594 C 179.28125 297.753906 177.738281 297.15625 176.207031 296.523438 C 174.679688 295.890625 173.167969 295.222656 171.671875 294.515625 C 170.179688 293.808594 168.699219 293.0625 167.242188 292.285156 C 165.785156 291.503906 164.34375 290.6875 162.925781 289.839844 C 161.507812 288.988281 160.109375 288.105469 158.734375 287.183594 C 157.359375 286.265625 156.007812 285.3125 154.679688 284.328125 C 153.351562 283.34375 152.046875 282.324219 150.769531 281.277344 C 149.488281 280.226562 148.238281 279.148438 147.011719 278.035156 C 145.785156 276.925781 144.589844 275.785156 143.417969 274.617188 C 142.25 273.445312 141.109375 272.25 140 271.023438 C 138.886719 269.796875 137.808594 268.542969 136.757812 267.265625 C 135.707031 265.988281 134.691406 264.683594 133.707031 263.355469 C 132.722656 262.027344 131.769531 260.675781 130.851562 259.300781 C 129.929688 257.925781 129.046875 256.527344 128.195312 255.109375 C 127.34375 253.691406 126.53125 252.25 125.75 250.792969 C 124.972656 249.332031 124.226562 247.855469 123.519531 246.359375 C 122.8125 244.867188 122.144531 243.355469 121.507812 241.824219 C 120.875 240.296875 120.28125 238.753906 119.722656 237.195312 C 119.167969 235.640625 118.648438 234.070312 118.167969 232.488281 C 117.6875 230.902344 117.246094 229.308594 116.84375 227.707031 C 116.441406 226.101562 116.082031 224.488281 115.757812 222.867188 C 115.433594 221.242188 115.152344 219.613281 114.910156 217.976562 C 114.667969 216.339844 114.464844 214.699219 114.304688 213.054688 C 114.140625 211.40625 114.019531 209.757812 113.9375 208.105469 C 113.855469 206.453125 113.816406 204.800781 113.816406 203.148438 C 113.816406 201.492188 113.855469 199.839844 113.9375 198.1875 C 114.019531 196.535156 114.140625 194.886719 114.304688 193.242188 C 114.464844 191.59375 114.667969 189.953125 114.910156 188.316406 C 115.152344 186.679688 115.433594 185.050781 115.757812 183.429688 C 116.082031 181.808594 116.441406 180.195312 116.84375 178.589844 C 117.246094 176.984375 117.6875 175.390625 118.167969 173.808594 C 118.648438 172.226562 119.167969 170.65625 119.722656 169.097656 C 120.28125 167.539062 120.875 165.996094 121.507812 164.46875 C 122.144531 162.941406 122.8125 161.429688 123.519531 159.933594 C 124.226562 158.4375 124.972656 156.960938 125.75 155.503906 C 126.53125 154.042969 127.34375 152.605469 128.195312 151.1875 C 129.046875 149.769531 129.929688 148.371094 130.851562 146.996094 C 131.769531 145.621094 132.722656 144.269531 133.707031 142.941406 C 134.691406 141.613281 135.707031 140.308594 136.757812 139.027344 C 137.808594 137.75 138.886719 136.5 140 135.273438 C 141.109375 134.046875 142.25 132.851562 143.417969 131.679688 C 144.589844 130.511719 145.785156 129.371094 147.011719 128.257812 C 148.238281 127.148438 149.488281 126.070312 150.769531 125.019531 C 152.046875 123.96875 153.351562 122.953125 154.679688 121.96875 C 156.007812 120.980469 157.359375 120.03125 158.734375 119.109375 C 160.109375 118.191406 161.507812 117.308594 162.925781 116.457031 C 164.34375 115.605469 165.785156 114.792969 167.242188 114.011719 C 168.699219 113.230469 170.179688 112.488281 171.671875 111.78125 C 173.167969 111.074219 174.679688 110.402344 176.207031 109.769531 C 177.738281 109.136719 179.28125 108.542969 180.835938 107.984375 C 182.394531 107.429688 183.964844 106.910156 185.546875 106.429688 C 187.128906 105.949219 188.722656 105.507812 190.328125 105.105469 C 191.933594 104.703125 193.546875 104.34375 195.167969 104.019531 C 196.792969 103.695312 198.421875 103.414062 200.054688 103.171875 C 201.691406 102.929688 203.332031 102.726562 204.980469 102.5625 C 206.625 102.402344 208.273438 102.28125 209.925781 102.199219 C 211.578125 102.117188 213.234375 102.078125 214.886719 102.078125 C 216.539062 102.078125 218.195312 102.117188 219.847656 102.199219 C 221.496094 102.28125 223.148438 102.402344 224.792969 102.5625 C 226.4375 102.726562 228.082031 102.929688 229.714844 103.171875 C 231.351562 103.414062 232.980469 103.695312 234.605469 104.019531 C 236.226562 104.34375 237.839844 104.703125 239.445312 105.105469 C 241.050781 105.507812 242.644531 105.949219 244.226562 106.429688 C 245.808594 106.910156 247.378906 107.429688 248.9375 107.984375 C 250.492188 108.542969 252.035156 109.136719 253.566406 109.769531 C 255.09375 110.402344 256.605469 111.074219 258.101562 111.78125 C 259.59375 112.488281 261.070312 113.230469 262.53125 114.011719 C 263.988281 114.792969 265.429688 115.605469 266.847656 116.457031 C 268.265625 117.308594 269.664062 118.191406 271.039062 119.109375 C 272.414062 120.03125 273.765625 120.980469 275.09375 121.96875 C 276.421875 122.953125 277.726562 123.96875 279.003906 125.019531 C 280.285156 126.070312 281.535156 127.148438 282.761719 128.257812 C 283.988281 129.371094 285.183594 130.511719 286.355469 131.679688 C 287.523438 132.851562 288.664062 134.046875 289.773438 135.273438 C 290.886719 136.5 291.964844 137.75 293.015625 139.027344 C 294.066406 140.308594 295.082031 141.613281 296.066406 142.941406 C 297.050781 144.269531 298.003906 145.621094 298.921875 146.996094 C 299.84375 148.371094 300.726562 149.769531 301.578125 151.1875 C 302.429688 152.605469 303.242188 154.042969 304.023438 155.503906 C 304.800781 156.960938 305.546875 158.4375 306.253906 159.933594 C 306.960938 161.429688 307.628906 162.941406 308.261719 164.46875 C 308.898438 165.996094 309.492188 167.539062 310.050781 169.097656 C 310.605469 170.65625 311.125 172.226562 311.605469 173.808594 C 312.085938 175.390625 312.527344 176.984375 312.929688 178.589844 C 313.328125 180.195312 313.691406 181.808594 314.015625 183.429688 C 314.335938 185.050781 314.621094 186.679688 314.863281 188.316406 C 315.105469 189.953125 315.308594 191.59375 315.46875 193.242188 C 315.632812 194.886719 315.753906 196.535156 315.835938 198.1875 C 315.917969 199.839844 315.957031 201.492188 315.957031 203.148438 Z M 315.957031 203.148438 " fill-opacity="1" fill-rule="nonzero"/></g><path fill="#77ddee" d="M 341.808594 245.011719 L 211.9375 320.0625 L 131.207031 273.410156 L 82.066406 245.011719 L 108.417969 228.96875 L 117 233.925781 L 99.117188 244.816406 L 211.9375 310.015625 L 324.761719 244.816406 L 306.875 233.925781 L 315.457031 228.96875 Z M 169.703125 201.839844 L 211.9375 226.25 L 216.265625 223.746094 L 254.175781 201.839844 L 262.757812 196.882812 L 298.515625 176.214844 L 271.609375 160.492188 L 262.941406 165.503906 L 281.203125 176.175781 L 254.289062 191.726562 L 245.710938 196.6875 L 211.9375 216.203125 L 178.167969 196.6875 L 169.585938 191.726562 L 142.671875 176.175781 L 160.933594 165.503906 L 152.265625 160.492188 L 125.359375 176.214844 L 161.121094 196.882812 Z M 206.078125 129.046875 L 211.9375 132.433594 L 217.796875 129.046875 L 226.367188 124.09375 L 255.226562 107.417969 L 228.320312 91.695312 L 219.652344 96.703125 L 237.914062 107.375 L 211.9375 122.386719 L 185.960938 107.375 L 204.222656 96.707031 L 195.554688 91.695312 L 168.648438 107.417969 L 200.582031 125.871094 Z M 206.078125 129.046875 " fill-opacity="1" fill-rule="nonzero"/><path fill="#4f518c" d="M 324.761719 244.816406 L 211.9375 310.015625 L 99.117188 244.816406 L 117 233.925781 L 211.9375 288.789062 L 306.875 233.925781 Z M 178.167969 196.6875 L 211.9375 216.203125 L 245.710938 196.6875 L 254.289062 191.726562 L 281.203125 176.175781 L 262.941406 165.503906 L 236.40625 180.839844 L 227.824219 185.796875 L 211.9375 194.976562 L 196.054688 185.796875 L 187.472656 180.839844 L 160.933594 165.503906 L 142.671875 176.175781 L 169.585938 191.726562 Z M 237.914062 107.375 L 219.652344 96.703125 L 211.9375 101.164062 L 204.222656 96.707031 L 185.960938 107.375 L 211.9375 122.386719 Z M 237.914062 107.375 " fill-opacity="1" fill-rule="nonzero"/><path fill="#dabfff" d="M 211.9375 38.621094 L 211.9375 101.164062 L 204.222656 96.707031 L 195.554688 91.695312 L 168.648438 76.144531 Z M 131.207031 273.410156 L 82.066406 245.011719 L 38.777344 282.539062 L 211.9375 382.605469 L 211.9375 320.0625 Z M 206.078125 129.046875 L 200.582031 125.871094 L 168.648438 107.417969 L 125.359375 144.941406 L 152.265625 160.492188 L 160.933594 165.503906 L 187.472656 180.839844 L 196.054688 185.796875 L 211.9375 194.976562 L 211.9375 132.433594 Z M 169.703125 201.839844 L 161.121094 196.882812 L 125.359375 176.214844 L 82.066406 213.738281 L 108.417969 228.96875 L 117 233.925781 L 211.9375 288.789062 L 211.9375 226.25 Z M 169.703125 201.839844 " fill-opacity="1" fill-rule="nonzero"/><path fill="#907ad6" d="M 385.101562 282.539062 L 211.9375 382.605469 L 211.9375 320.0625 L 341.808594 245.011719 Z M 315.457031 228.96875 L 341.808594 213.738281 L 298.519531 176.214844 L 298.515625 176.214844 L 262.757812 196.882812 L 254.175781 201.839844 L 216.265625 223.746094 L 211.9375 226.25 L 211.9375 288.789062 L 306.875 233.925781 Z M 236.40625 180.839844 L 262.941406 165.503906 L 271.609375 160.492188 L 298.519531 144.941406 L 255.226562 107.417969 L 226.367188 124.09375 L 217.796875 129.046875 L 211.9375 132.433594 L 211.9375 194.976562 L 227.824219 185.796875 Z M 228.320312 91.695312 L 255.226562 76.144531 L 211.9375 38.621094 L 211.9375 101.164062 L 219.652344 96.703125 Z M 228.320312 91.695312 " fill-opacity="1" fill-rule="nonzero"/><g clip-path="url(#c01c0cca75)"><path fill="#2c2a4a" d="M 385.667969 281.878906 L 342.378906 244.355469 C 342.359375 244.339844 342.335938 244.34375 342.320312 244.328125 C 342.296875 244.3125 342.285156 244.28125 342.261719 244.269531 L 317.164062 228.988281 L 342.242188 214.492188 C 342.488281 214.351562 342.648438 214.101562 342.675781 213.824219 C 342.703125 213.542969 342.589844 213.265625 342.378906 213.082031 L 299.089844 175.558594 C 299.066406 175.539062 299.039062 175.542969 299.019531 175.527344 C 298.996094 175.511719 298.984375 175.480469 298.957031 175.464844 L 273.34375 160.496094 L 298.953125 145.695312 C 299.199219 145.554688 299.359375 145.304688 299.382812 145.027344 C 299.410156 144.746094 299.300781 144.46875 299.089844 144.285156 L 255.796875 106.761719 C 255.777344 106.742188 255.75 106.746094 255.730469 106.730469 C 255.707031 106.714844 255.695312 106.683594 255.667969 106.667969 L 230.054688 91.699219 L 255.664062 76.902344 C 255.90625 76.757812 256.066406 76.507812 256.09375 76.230469 C 256.121094 75.949219 256.011719 75.671875 255.796875 75.488281 L 212.507812 37.964844 C 212.472656 37.933594 212.429688 37.933594 212.394531 37.910156 C 212.359375 37.886719 212.339844 37.847656 212.300781 37.828125 C 212.261719 37.8125 212.21875 37.824219 212.179688 37.8125 C 212.097656 37.789062 212.019531 37.777344 211.9375 37.777344 C 211.855469 37.777344 211.777344 37.789062 211.699219 37.8125 C 211.660156 37.824219 211.617188 37.8125 211.578125 37.828125 C 211.539062 37.847656 211.519531 37.886719 211.484375 37.910156 C 211.449219 37.933594 211.402344 37.933594 211.371094 37.964844 L 168.078125 75.488281 C 167.867188 75.671875 167.753906 75.949219 167.78125 76.230469 C 167.808594 76.507812 167.96875 76.757812 168.214844 76.902344 L 193.824219 91.699219 L 168.210938 106.667969 C 168.183594 106.683594 168.171875 106.714844 168.144531 106.730469 C 168.125 106.746094 168.097656 106.742188 168.078125 106.761719 L 124.789062 144.285156 C 124.574219 144.46875 124.464844 144.746094 124.492188 145.027344 C 124.519531 145.304688 124.679688 145.554688 124.921875 145.695312 L 150.535156 160.496094 L 124.917969 175.464844 C 124.894531 175.480469 124.882812 175.511719 124.859375 175.527344 C 124.835938 175.542969 124.808594 175.539062 124.789062 175.558594 L 81.5 213.082031 C 81.285156 213.265625 81.175781 213.542969 81.203125 213.824219 C 81.230469 214.101562 81.390625 214.351562 81.632812 214.492188 L 106.714844 228.988281 L 81.617188 244.269531 C 81.589844 244.28125 81.582031 244.3125 81.558594 244.328125 C 81.539062 244.339844 81.515625 244.339844 81.5 244.355469 L 38.207031 281.878906 C 37.996094 282.0625 37.882812 282.339844 37.910156 282.621094 C 37.9375 282.898438 38.097656 283.148438 38.34375 283.289062 L 211.503906 383.359375 C 211.636719 383.4375 211.789062 383.476562 211.9375 383.476562 C 212.046875 383.476562 212.152344 383.433594 212.257812 383.390625 C 212.292969 383.375 212.335938 383.378906 212.375 383.359375 L 385.535156 283.289062 C 385.777344 283.148438 385.9375 282.898438 385.964844 282.621094 C 385.992188 282.339844 385.882812 282.0625 385.667969 281.878906 Z M 212.808594 381.097656 L 212.808594 320.566406 L 341.707031 246.074219 L 383.609375 282.394531 Z M 170.378906 107.414062 L 195.558594 92.703125 L 202.492188 96.710938 L 185.523438 106.625 C 185.257812 106.78125 185.09375 107.070312 185.09375 107.378906 C 185.09375 107.6875 185.261719 107.972656 185.527344 108.128906 L 211.503906 123.140625 C 211.636719 123.21875 211.789062 123.257812 211.9375 123.257812 C 212.089844 123.257812 212.238281 123.21875 212.375 123.140625 L 238.351562 108.128906 C 238.617188 107.972656 238.785156 107.6875 238.785156 107.378906 C 238.785156 107.070312 238.621094 106.78125 238.351562 106.625 L 221.382812 96.710938 L 228.320312 92.703125 L 253.496094 107.414062 L 217.800781 128.042969 L 216.066406 129.042969 L 211.9375 131.429688 L 207.808594 129.042969 L 206.074219 128.042969 Z M 211.070312 40.527344 L 211.070312 99.65625 L 205.957031 96.699219 L 204.222656 95.699219 L 197.285156 91.691406 L 196.421875 91.191406 L 195.554688 90.6875 L 170.140625 76.003906 Z M 211.503906 101.917969 C 211.636719 101.992188 211.789062 102.03125 211.9375 102.03125 C 212.089844 102.03125 212.238281 101.992188 212.375 101.917969 L 219.648438 97.710938 L 236.183594 107.371094 L 211.9375 121.382812 L 187.695312 107.371094 L 204.226562 97.710938 Z M 227.457031 91.191406 L 226.589844 91.691406 L 219.65625 95.699219 L 217.921875 96.699219 L 212.808594 99.65625 L 212.808594 40.527344 L 253.734375 76.003906 L 228.324219 90.6875 Z M 211.503906 195.730469 C 211.636719 195.808594 211.789062 195.847656 211.9375 195.847656 C 212.089844 195.847656 212.238281 195.808594 212.375 195.730469 L 227.8125 186.808594 L 228.671875 186.3125 L 229.527344 185.816406 L 236.394531 181.851562 L 237.253906 181.355469 L 238.109375 180.859375 L 262.941406 166.507812 L 279.472656 176.167969 L 254.304688 190.714844 L 252.585938 191.707031 L 245.722656 195.675781 L 244.003906 196.667969 L 211.9375 215.199219 L 179.871094 196.667969 L 179.015625 196.171875 L 178.15625 195.675781 L 171.292969 191.707031 L 169.574219 190.714844 L 144.402344 176.167969 L 160.9375 166.507812 L 185.765625 180.859375 L 187.484375 181.851562 L 194.347656 185.816406 L 196.066406 186.808594 Z M 270.746094 159.988281 L 269.878906 160.488281 L 262.945312 164.496094 L 262.078125 164.996094 L 261.210938 165.5 L 236.417969 179.828125 L 234.699219 180.820312 L 227.835938 184.785156 L 226.117188 185.777344 L 212.808594 193.46875 L 212.808594 132.9375 L 217.796875 130.054688 L 218.664062 129.554688 L 219.53125 129.050781 L 255.128906 108.480469 L 297.027344 144.800781 L 271.613281 159.488281 Z M 168.75 108.480469 L 204.347656 129.050781 L 205.214844 129.554688 L 206.082031 130.054688 L 211.070312 132.9375 L 211.070312 193.46875 L 197.757812 185.777344 L 196.902344 185.28125 L 196.042969 184.785156 L 189.175781 180.820312 L 188.320312 180.324219 L 187.460938 179.828125 L 162.664062 165.5 L 161.800781 164.996094 L 160.933594 164.496094 L 153.996094 160.488281 L 153.128906 159.988281 L 152.265625 159.488281 L 126.851562 144.800781 Z M 159.203125 165.507812 L 142.234375 175.421875 C 141.964844 175.578125 141.800781 175.867188 141.800781 176.175781 C 141.804688 176.484375 141.96875 176.773438 142.238281 176.925781 L 167.882812 191.746094 L 168.738281 192.242188 L 169.597656 192.738281 L 176.464844 196.707031 L 177.320312 197.203125 L 178.179688 197.699219 L 211.503906 216.957031 C 211.636719 217.035156 211.789062 217.074219 211.9375 217.074219 C 212.089844 217.074219 212.238281 217.035156 212.375 216.957031 L 245.699219 197.699219 L 246.554688 197.203125 L 247.414062 196.707031 L 254.28125 192.738281 L 255.136719 192.242188 L 255.996094 191.746094 L 281.640625 176.925781 C 281.90625 176.773438 282.074219 176.484375 282.074219 176.175781 C 282.074219 175.867188 281.910156 175.578125 281.644531 175.421875 L 264.675781 165.507812 L 271.609375 161.5 L 296.785156 176.210938 L 262.769531 195.871094 L 261.050781 196.863281 L 254.1875 200.828125 L 252.46875 201.820312 L 227.652344 216.164062 L 211.9375 225.242188 L 171.40625 201.820312 L 170.550781 201.324219 L 169.691406 200.828125 L 162.824219 196.863281 L 161.96875 196.367188 L 161.109375 195.871094 L 127.089844 176.210938 L 152.269531 161.5 Z M 211.503906 289.542969 C 211.636719 289.621094 211.789062 289.660156 211.9375 289.660156 C 212.089844 289.660156 212.238281 289.621094 212.375 289.542969 L 306.863281 234.9375 L 323.054688 244.796875 L 211.9375 309.011719 L 100.820312 244.796875 L 117.011719 234.9375 Z M 314.609375 228.453125 L 313.753906 228.949219 L 306.886719 232.917969 L 306.027344 233.414062 L 305.171875 233.90625 L 212.808594 287.285156 L 212.808594 226.75 L 254.164062 202.851562 L 255.019531 202.355469 L 255.878906 201.859375 L 262.746094 197.894531 L 263.601562 197.398438 L 264.460938 196.902344 L 298.417969 177.277344 L 340.316406 213.597656 L 315.46875 227.957031 Z M 125.457031 177.277344 L 159.417969 196.902344 L 160.273438 197.398438 L 161.132812 197.894531 L 167.996094 201.859375 L 169.714844 202.851562 L 211.070312 226.75 L 211.070312 287.285156 L 118.707031 233.90625 L 117.847656 233.414062 L 116.988281 232.917969 L 110.125 228.949219 L 108.40625 227.957031 L 83.558594 213.597656 Z M 115.296875 233.945312 L 98.664062 244.074219 C 98.402344 244.234375 98.242188 244.519531 98.246094 244.828125 C 98.25 245.132812 98.414062 245.417969 98.679688 245.570312 L 211.503906 310.769531 C 211.636719 310.847656 211.789062 310.886719 211.9375 310.886719 C 212.089844 310.886719 212.238281 310.847656 212.375 310.769531 L 325.195312 245.570312 C 325.460938 245.417969 325.625 245.132812 325.628906 244.828125 C 325.632812 244.519531 325.476562 244.234375 325.210938 244.074219 L 308.582031 233.949219 L 315.445312 229.980469 L 340.105469 244.992188 L 305.085938 265.230469 L 211.9375 319.058594 L 83.773438 244.992188 L 108.429688 229.980469 Z M 82.167969 246.074219 L 211.070312 320.566406 L 211.070312 381.097656 L 40.269531 282.394531 Z M 82.167969 246.074219 " fill-opacity="1" fill-rule="nonzero"/></g></svg>